<svg width="1363" height="163" viewBox="0 0 1363 163" fill="none" xmlns="http://www.w3.org/2000/svg">
<path d="M0 15C0 6.71573 6.71573 0 15 0H37V163H15C6.71573 163 0 156.284 0 148V15Z" fill="#424242"/>
<rect width="1097" height="163" transform="translate(37)" fill="#F0F0F0"/>
<path d="M101.906 53.9219L94.3945 51.2383V48.0859L104.602 52.375V54.6367L101.906 53.9219ZM94.3945 56.1719L101.918 53.4297L104.602 52.7852V55.0352L94.3945 59.3242V56.1719ZM122.789 55.3398H126.293C126.223 56.4883 125.906 57.5078 125.344 58.3984C124.789 59.2891 124.012 59.9844 123.012 60.4844C122.02 60.9844 120.824 61.2344 119.426 61.2344C118.332 61.2344 117.352 61.0469 116.484 60.6719C115.617 60.2891 114.875 59.7422 114.258 59.0312C113.648 58.3203 113.184 57.4609 112.863 56.4531C112.543 55.4453 112.383 54.3164 112.383 53.0664V51.8828C112.383 50.6328 112.547 49.5039 112.875 48.4961C113.211 47.4805 113.688 46.6172 114.305 45.9062C114.93 45.1953 115.676 44.6484 116.543 44.2656C117.41 43.8828 118.379 43.6914 119.449 43.6914C120.871 43.6914 122.07 43.9492 123.047 44.4648C124.031 44.9805 124.793 45.6914 125.332 46.5977C125.879 47.5039 126.207 48.5352 126.316 49.6914H122.801C122.762 49.0039 122.625 48.4219 122.391 47.9453C122.156 47.4609 121.801 47.0977 121.324 46.8555C120.855 46.6055 120.23 46.4805 119.449 46.4805C118.863 46.4805 118.352 46.5898 117.914 46.8086C117.477 47.0273 117.109 47.3594 116.812 47.8047C116.516 48.25 116.293 48.8125 116.145 49.4922C116.004 50.1641 115.934 50.9531 115.934 51.8594V53.0664C115.934 53.9492 116 54.7266 116.133 55.3984C116.266 56.0625 116.469 56.625 116.742 57.0859C117.023 57.5391 117.383 57.8828 117.82 58.1172C118.266 58.3438 118.801 58.457 119.426 58.457C120.16 58.457 120.766 58.3398 121.242 58.1055C121.719 57.8711 122.082 57.5234 122.332 57.0625C122.59 56.6016 122.742 56.0273 122.789 55.3398ZM137.484 56.5352C137.484 56.2305 137.438 55.957 137.344 55.7148C137.258 55.4648 137.094 55.2383 136.852 55.0352C136.609 54.8242 136.27 54.6172 135.832 54.4141C135.395 54.2109 134.828 54 134.133 53.7812C133.359 53.5312 132.625 53.25 131.93 52.9375C131.242 52.625 130.633 52.2617 130.102 51.8477C129.578 51.4258 129.164 50.9375 128.859 50.3828C128.562 49.8281 128.414 49.1836 128.414 48.4492C128.414 47.7383 128.57 47.0938 128.883 46.5156C129.195 45.9297 129.633 45.4297 130.195 45.0156C130.758 44.5938 131.422 44.2695 132.188 44.043C132.961 43.8164 133.809 43.7031 134.73 43.7031C135.988 43.7031 137.086 43.9297 138.023 44.3828C138.961 44.8359 139.688 45.457 140.203 46.2461C140.727 47.0352 140.988 47.9375 140.988 48.9531H137.496C137.496 48.4531 137.391 48.0156 137.18 47.6406C136.977 47.2578 136.664 46.957 136.242 46.7383C135.828 46.5195 135.305 46.4102 134.672 46.4102C134.062 46.4102 133.555 46.5039 133.148 46.6914C132.742 46.8711 132.438 47.1172 132.234 47.4297C132.031 47.7344 131.93 48.0781 131.93 48.4609C131.93 48.75 132 49.0117 132.141 49.2461C132.289 49.4805 132.508 49.6992 132.797 49.9023C133.086 50.1055 133.441 50.2969 133.863 50.4766C134.285 50.6562 134.773 50.832 135.328 51.0039C136.258 51.2852 137.074 51.6016 137.777 51.9531C138.488 52.3047 139.082 52.6992 139.559 53.1367C140.035 53.5742 140.395 54.0703 140.637 54.625C140.879 55.1797 141 55.8086 141 56.5117C141 57.2539 140.855 57.918 140.566 58.5039C140.277 59.0898 139.859 59.5859 139.312 59.9922C138.766 60.3984 138.113 60.707 137.355 60.918C136.598 61.1289 135.75 61.2344 134.812 61.2344C133.969 61.2344 133.137 61.125 132.316 60.9062C131.496 60.6797 130.75 60.3398 130.078 59.8867C129.414 59.4336 128.883 58.8555 128.484 58.1523C128.086 57.4492 127.887 56.6172 127.887 55.6562H131.414C131.414 56.1875 131.496 56.6367 131.66 57.0039C131.824 57.3711 132.055 57.668 132.352 57.8945C132.656 58.1211 133.016 58.2852 133.43 58.3867C133.852 58.4883 134.312 58.5391 134.812 58.5391C135.422 58.5391 135.922 58.4531 136.312 58.2812C136.711 58.1094 137.004 57.8711 137.191 57.5664C137.387 57.2617 137.484 56.918 137.484 56.5352ZM156.012 57.4961C156.012 57.2539 155.941 57.0352 155.801 56.8398C155.66 56.6445 155.398 56.4648 155.016 56.3008C154.641 56.1289 154.098 55.9727 153.387 55.832C152.746 55.6914 152.148 55.5156 151.594 55.3047C151.047 55.0859 150.57 54.8242 150.164 54.5195C149.766 54.2148 149.453 53.8555 149.227 53.4414C149 53.0195 148.887 52.5391 148.887 52C148.887 51.4688 149 50.9688 149.227 50.5C149.461 50.0312 149.793 49.6172 150.223 49.2578C150.66 48.8906 151.191 48.6055 151.816 48.4023C152.449 48.1914 153.16 48.0859 153.949 48.0859C155.051 48.0859 155.996 48.2617 156.785 48.6133C157.582 48.9648 158.191 49.4492 158.613 50.0664C159.043 50.6758 159.258 51.3711 159.258 52.1523H155.883C155.883 51.8242 155.812 51.5312 155.672 51.2734C155.539 51.0078 155.328 50.8008 155.039 50.6523C154.758 50.4961 154.391 50.418 153.938 50.418C153.562 50.418 153.238 50.4844 152.965 50.6172C152.691 50.7422 152.48 50.9141 152.332 51.1328C152.191 51.3438 152.121 51.5781 152.121 51.8359C152.121 52.0312 152.16 52.207 152.238 52.3633C152.324 52.5117 152.461 52.6484 152.648 52.7734C152.836 52.8984 153.078 53.0156 153.375 53.125C153.68 53.2266 154.055 53.3203 154.5 53.4062C155.414 53.5938 156.23 53.8398 156.949 54.1445C157.668 54.4414 158.238 54.8477 158.66 55.3633C159.082 55.8711 159.293 56.5391 159.293 57.3672C159.293 57.9297 159.168 58.4453 158.918 58.9141C158.668 59.3828 158.309 59.793 157.84 60.1445C157.371 60.4883 156.809 60.7578 156.152 60.9531C155.504 61.1406 154.773 61.2344 153.961 61.2344C152.781 61.2344 151.781 61.0234 150.961 60.6016C150.148 60.1797 149.531 59.6445 149.109 58.9961C148.695 58.3398 148.488 57.668 148.488 56.9805H151.688C151.703 57.4414 151.82 57.8125 152.039 58.0938C152.266 58.375 152.551 58.5781 152.895 58.7031C153.246 58.8281 153.625 58.8906 154.031 58.8906C154.469 58.8906 154.832 58.832 155.121 58.7148C155.41 58.5898 155.629 58.4258 155.777 58.2227C155.934 58.0117 156.012 57.7695 156.012 57.4961ZM165.047 48.3203V61H161.66V48.3203H165.047ZM161.449 45.0156C161.449 44.5234 161.621 44.1172 161.965 43.7969C162.309 43.4766 162.77 43.3164 163.348 43.3164C163.918 43.3164 164.375 43.4766 164.719 43.7969C165.07 44.1172 165.246 44.5234 165.246 45.0156C165.246 45.5078 165.07 45.9141 164.719 46.2344C164.375 46.5547 163.918 46.7148 163.348 46.7148C162.77 46.7148 162.309 46.5547 161.965 46.2344C161.621 45.9141 161.449 45.5078 161.449 45.0156ZM171.211 50.9453V61H167.824V48.3203H171L171.211 50.9453ZM170.742 54.2148H169.805C169.805 53.332 169.91 52.5195 170.121 51.7773C170.34 51.0273 170.656 50.3789 171.07 49.832C171.492 49.2773 172.012 48.8477 172.629 48.543C173.246 48.2383 173.961 48.0859 174.773 48.0859C175.336 48.0859 175.852 48.1719 176.32 48.3438C176.789 48.5078 177.191 48.7695 177.527 49.1289C177.871 49.4805 178.137 49.9414 178.324 50.5117C178.512 51.0742 178.605 51.75 178.605 52.5391V61H175.23V52.9141C175.23 52.3359 175.152 51.8906 174.996 51.5781C174.84 51.2656 174.617 51.0469 174.328 50.9219C174.047 50.7969 173.707 50.7344 173.309 50.7344C172.871 50.7344 172.488 50.8242 172.16 51.0039C171.84 51.1836 171.574 51.4336 171.363 51.7539C171.152 52.0664 170.996 52.4336 170.895 52.8555C170.793 53.2773 170.742 53.7305 170.742 54.2148ZM178.289 53.8281L177.082 53.9805C177.082 53.1523 177.184 52.3828 177.387 51.6719C177.598 50.9609 177.906 50.3359 178.312 49.7969C178.727 49.2578 179.238 48.8398 179.848 48.543C180.457 48.2383 181.16 48.0859 181.957 48.0859C182.566 48.0859 183.121 48.1758 183.621 48.3555C184.121 48.5273 184.547 48.8047 184.898 49.1875C185.258 49.5625 185.531 50.0547 185.719 50.6641C185.914 51.2734 186.012 52.0195 186.012 52.9023V61H182.625V52.9023C182.625 52.3164 182.547 51.8711 182.391 51.5664C182.242 51.2539 182.023 51.0391 181.734 50.9219C181.453 50.7969 181.117 50.7344 180.727 50.7344C180.32 50.7344 179.965 50.8164 179.66 50.9805C179.355 51.1367 179.102 51.3555 178.898 51.6367C178.695 51.918 178.543 52.2461 178.441 52.6211C178.34 52.9883 178.289 53.3906 178.289 53.8281Z" fill="#888888"/>
<path d="M114.117 84.875H122.344V107.164C122.344 109.82 121.789 112.07 120.68 113.914C119.57 115.742 118.016 117.125 116.016 118.062C114.016 119 111.664 119.469 108.961 119.469C106.289 119.469 103.938 119 101.906 118.062C99.8906 117.125 98.3125 115.742 97.1719 113.914C96.0469 112.07 95.4844 109.82 95.4844 107.164V84.875H103.734V107.164C103.734 108.57 103.938 109.719 104.344 110.609C104.75 111.484 105.344 112.125 106.125 112.531C106.906 112.938 107.852 113.141 108.961 113.141C110.086 113.141 111.031 112.938 111.797 112.531C112.562 112.125 113.141 111.484 113.531 110.609C113.922 109.719 114.117 108.57 114.117 107.164V84.875ZM134.906 99.0547V119H127.008V93.6406H134.414L134.906 99.0547ZM133.969 105.453L132.117 105.5C132.117 103.562 132.352 101.836 132.82 100.32C133.289 98.7891 133.953 97.4922 134.812 96.4297C135.672 95.3672 136.695 94.5625 137.883 94.0156C139.086 93.4531 140.422 93.1719 141.891 93.1719C143.062 93.1719 144.133 93.3438 145.102 93.6875C146.086 94.0312 146.93 94.5859 147.633 95.3516C148.352 96.1172 148.898 97.1328 149.273 98.3984C149.664 99.6484 149.859 101.195 149.859 103.039V119H141.914V103.016C141.914 102 141.773 101.227 141.492 100.695C141.211 100.148 140.805 99.7734 140.273 99.5703C139.742 99.3672 139.094 99.2656 138.328 99.2656C137.516 99.2656 136.828 99.4219 136.266 99.7344C135.703 100.047 135.25 100.484 134.906 101.047C134.578 101.594 134.336 102.242 134.18 102.992C134.039 103.742 133.969 104.562 133.969 105.453ZM162.586 93.6406V119H154.664V93.6406H162.586ZM154.195 87.1016C154.195 85.9766 154.602 85.0547 155.414 84.3359C156.227 83.6172 157.281 83.2578 158.578 83.2578C159.875 83.2578 160.93 83.6172 161.742 84.3359C162.555 85.0547 162.961 85.9766 162.961 87.1016C162.961 88.2266 162.555 89.1484 161.742 89.8672C160.93 90.5859 159.875 90.9453 158.578 90.9453C157.281 90.9453 156.227 90.5859 155.414 89.8672C154.602 89.1484 154.195 88.2266 154.195 87.1016ZM180.82 93.6406V99.125H165.539V93.6406H180.82ZM168.75 87.3359H176.648V110.727C176.648 111.398 176.727 111.922 176.883 112.297C177.039 112.656 177.305 112.914 177.68 113.07C178.07 113.211 178.586 113.281 179.227 113.281C179.68 113.281 180.055 113.273 180.352 113.258C180.648 113.227 180.93 113.188 181.195 113.141V118.789C180.523 119.008 179.82 119.172 179.086 119.281C178.352 119.406 177.57 119.469 176.742 119.469C175.055 119.469 173.609 119.203 172.406 118.672C171.219 118.141 170.312 117.305 169.688 116.164C169.062 115.023 168.75 113.539 168.75 111.711V87.3359ZM211.406 84.875V119H203.18V84.875H211.406ZM221.672 84.875V91.2266H193.148V84.875H221.672ZM234.961 119.469C232.898 119.469 231.055 119.148 229.43 118.508C227.805 117.852 226.43 116.953 225.305 115.812C224.195 114.672 223.344 113.359 222.75 111.875C222.172 110.391 221.883 108.82 221.883 107.164V106.273C221.883 104.414 222.141 102.695 222.656 101.117C223.172 99.5234 223.938 98.1328 224.953 96.9453C225.969 95.7578 227.242 94.8359 228.773 94.1797C230.305 93.5078 232.086 93.1719 234.117 93.1719C235.914 93.1719 237.523 93.4609 238.945 94.0391C240.367 94.6172 241.57 95.4453 242.555 96.5234C243.555 97.6016 244.312 98.9062 244.828 100.438C245.359 101.969 245.625 103.688 245.625 105.594V108.805H224.906V103.859H237.914V103.25C237.93 102.406 237.781 101.688 237.469 101.094C237.172 100.5 236.734 100.047 236.156 99.7344C235.578 99.4219 234.875 99.2656 234.047 99.2656C233.188 99.2656 232.477 99.4531 231.914 99.8281C231.367 100.203 230.938 100.719 230.625 101.375C230.328 102.016 230.117 102.758 229.992 103.602C229.867 104.445 229.805 105.336 229.805 106.273V107.164C229.805 108.102 229.93 108.953 230.18 109.719C230.445 110.484 230.82 111.141 231.305 111.688C231.805 112.219 232.398 112.633 233.086 112.93C233.789 113.227 234.586 113.375 235.477 113.375C236.555 113.375 237.617 113.172 238.664 112.766C239.711 112.359 240.609 111.688 241.359 110.75L244.945 115.016C244.43 115.75 243.695 116.461 242.742 117.148C241.805 117.836 240.68 118.398 239.367 118.836C238.055 119.258 236.586 119.469 234.961 119.469ZM262.125 111.875C262.125 111.438 261.977 111.062 261.68 110.75C261.398 110.422 260.898 110.125 260.18 109.859C259.461 109.578 258.453 109.297 257.156 109.016C255.922 108.75 254.758 108.398 253.664 107.961C252.586 107.523 251.641 106.992 250.828 106.367C250.016 105.742 249.375 105 248.906 104.141C248.453 103.281 248.227 102.297 248.227 101.188C248.227 100.109 248.453 99.0938 248.906 98.1406C249.375 97.1719 250.055 96.3203 250.945 95.5859C251.852 94.8359 252.953 94.25 254.25 93.8281C255.547 93.3906 257.023 93.1719 258.68 93.1719C260.961 93.1719 262.93 93.5234 264.586 94.2266C266.242 94.9141 267.516 95.8828 268.406 97.1328C269.312 98.3672 269.766 99.7969 269.766 101.422H261.867C261.867 100.781 261.758 100.234 261.539 99.7812C261.336 99.3281 261 98.9844 260.531 98.75C260.062 98.5 259.438 98.375 258.656 98.375C258.109 98.375 257.609 98.4766 257.156 98.6797C256.719 98.8828 256.367 99.1641 256.102 99.5234C255.836 99.8828 255.703 100.305 255.703 100.789C255.703 101.133 255.781 101.445 255.938 101.727C256.109 101.992 256.367 102.242 256.711 102.477C257.055 102.695 257.492 102.898 258.023 103.086C258.555 103.258 259.195 103.414 259.945 103.555C261.648 103.867 263.242 104.312 264.727 104.891C266.211 105.469 267.414 106.289 268.336 107.352C269.273 108.414 269.742 109.844 269.742 111.641C269.742 112.766 269.484 113.805 268.969 114.758C268.453 115.695 267.711 116.523 266.742 117.242C265.773 117.945 264.609 118.492 263.25 118.883C261.891 119.273 260.359 119.469 258.656 119.469C256.234 119.469 254.188 119.039 252.516 118.18C250.844 117.305 249.578 116.211 248.719 114.898C247.875 113.57 247.453 112.227 247.453 110.867H254.812C254.844 111.648 255.031 112.289 255.375 112.789C255.734 113.289 256.211 113.656 256.805 113.891C257.398 114.125 258.086 114.242 258.867 114.242C259.586 114.242 260.18 114.141 260.648 113.938C261.133 113.734 261.5 113.461 261.75 113.117C262 112.758 262.125 112.344 262.125 111.875ZM286.805 93.6406V99.125H271.523V93.6406H286.805ZM274.734 87.3359H282.633V110.727C282.633 111.398 282.711 111.922 282.867 112.297C283.023 112.656 283.289 112.914 283.664 113.07C284.055 113.211 284.57 113.281 285.211 113.281C285.664 113.281 286.039 113.273 286.336 113.258C286.633 113.227 286.914 113.188 287.18 113.141V118.789C286.508 119.008 285.805 119.172 285.07 119.281C284.336 119.406 283.555 119.469 282.727 119.469C281.039 119.469 279.594 119.203 278.391 118.672C277.203 118.141 276.297 117.305 275.672 116.164C275.047 115.023 274.734 113.539 274.734 111.711V87.3359ZM298.289 93.6406V119H290.367V93.6406H298.289ZM289.898 87.1016C289.898 85.9766 290.305 85.0547 291.117 84.3359C291.93 83.6172 292.984 83.2578 294.281 83.2578C295.578 83.2578 296.633 83.6172 297.445 84.3359C298.258 85.0547 298.664 85.9766 298.664 87.1016C298.664 88.2266 298.258 89.1484 297.445 89.8672C296.633 90.5859 295.578 90.9453 294.281 90.9453C292.984 90.9453 291.93 90.5859 291.117 89.8672C290.305 89.1484 289.898 88.2266 289.898 87.1016ZM310.922 99.0547V119H303.023V93.6406H310.43L310.922 99.0547ZM309.984 105.453L308.133 105.5C308.133 103.562 308.367 101.836 308.836 100.32C309.305 98.7891 309.969 97.4922 310.828 96.4297C311.688 95.3672 312.711 94.5625 313.898 94.0156C315.102 93.4531 316.438 93.1719 317.906 93.1719C319.078 93.1719 320.148 93.3438 321.117 93.6875C322.102 94.0312 322.945 94.5859 323.648 95.3516C324.367 96.1172 324.914 97.1328 325.289 98.3984C325.68 99.6484 325.875 101.195 325.875 103.039V119H317.93V103.016C317.93 102 317.789 101.227 317.508 100.695C317.227 100.148 316.82 99.7734 316.289 99.5703C315.758 99.3672 315.109 99.2656 314.344 99.2656C313.531 99.2656 312.844 99.4219 312.281 99.7344C311.719 100.047 311.266 100.484 310.922 101.047C310.594 101.594 310.352 102.242 310.195 102.992C310.055 103.742 309.984 104.562 309.984 105.453ZM346.195 93.6406H353.367V118.016C353.367 120.359 352.828 122.344 351.75 123.969C350.672 125.609 349.164 126.852 347.227 127.695C345.305 128.555 343.055 128.984 340.477 128.984C339.336 128.984 338.172 128.836 336.984 128.539C335.797 128.258 334.688 127.836 333.656 127.273C332.625 126.711 331.758 126.016 331.055 125.188L334.359 120.547C335 121.266 335.805 121.875 336.773 122.375C337.742 122.891 338.883 123.148 340.195 123.148C341.336 123.148 342.289 122.945 343.055 122.539C343.836 122.133 344.43 121.539 344.836 120.758C345.242 119.992 345.445 119.062 345.445 117.969V99.6406L346.195 93.6406ZM329.344 106.625V106.133C329.344 104.211 329.578 102.461 330.047 100.883C330.531 99.2891 331.219 97.9219 332.109 96.7812C333.016 95.625 334.109 94.7344 335.391 94.1094C336.672 93.4844 338.117 93.1719 339.727 93.1719C341.461 93.1719 342.883 93.5078 343.992 94.1797C345.117 94.8359 346.016 95.7578 346.688 96.9453C347.375 98.1328 347.906 99.5234 348.281 101.117C348.672 102.695 349 104.398 349.266 106.227V106.812C349 108.531 348.633 110.156 348.164 111.688C347.711 113.203 347.117 114.547 346.383 115.719C345.648 116.891 344.727 117.812 343.617 118.484C342.523 119.141 341.211 119.469 339.68 119.469C338.086 119.469 336.648 119.148 335.367 118.508C334.102 117.867 333.016 116.969 332.109 115.812C331.219 114.656 330.531 113.297 330.047 111.734C329.578 110.172 329.344 108.469 329.344 106.625ZM337.242 106.133V106.625C337.242 107.578 337.328 108.461 337.5 109.273C337.688 110.086 337.969 110.805 338.344 111.43C338.719 112.039 339.18 112.516 339.727 112.859C340.289 113.203 340.945 113.375 341.695 113.375C342.836 113.375 343.758 113.133 344.461 112.648C345.164 112.164 345.672 111.477 345.984 110.586C346.297 109.695 346.43 108.648 346.383 107.445V105.594C346.414 104.562 346.344 103.656 346.172 102.875C346 102.078 345.727 101.414 345.352 100.883C344.992 100.352 344.508 99.9531 343.898 99.6875C343.305 99.4062 342.586 99.2656 341.742 99.2656C341.008 99.2656 340.359 99.4375 339.797 99.7812C339.234 100.125 338.766 100.609 338.391 101.234C338.016 101.844 337.727 102.57 337.523 103.414C337.336 104.242 337.242 105.148 337.242 106.133Z" fill="black"/>
<path d="M1134 0H1348C1356.28 0 1363 6.71573 1363 15V148C1363 156.284 1356.28 163 1348 163H1134V0Z" fill="#2895EE"/>
<path d="M1210.62 43.625H1286.38V119.375H1210.62V43.625Z" fill="white" fill-opacity="0.01"/>
<path d="M1276.91 72.0312V105.172C1276.91 107.787 1274.79 109.906 1272.17 109.906H1224.83C1222.21 109.906 1220.09 107.787 1220.09 105.172V57.8281C1220.09 55.2134 1222.21 53.0938 1224.83 53.0938H1261.12" stroke="white" stroke-width="7.24" stroke-linecap="round" stroke-linejoin="round"/>
<path d="M1232.72 75.1875L1248.5 87.8125L1276.91 53.0938" stroke="white" stroke-width="7.24" stroke-linecap="round" stroke-linejoin="round"/>
</svg>
