<svg width="1363" height="163" viewBox="0 0 1363 163" fill="none" xmlns="http://www.w3.org/2000/svg">
<path d="M0 15C0 6.71573 6.71573 0 15 0H37V163H15C6.71573 163 0 156.284 0 148V15Z" fill="#424242"/>
<rect width="1097" height="163" transform="translate(37)" fill="#F0F0F0"/>
<path d="M101.906 53.9219L94.3945 51.2383V48.0859L104.602 52.375V54.6367L101.906 53.9219ZM94.3945 56.1719L101.918 53.4297L104.602 52.7852V55.0352L94.3945 59.3242V56.1719ZM117.926 58.5977C118.34 58.5977 118.707 58.5195 119.027 58.3633C119.348 58.1992 119.598 57.9727 119.777 57.6836C119.965 57.3867 120.062 57.0391 120.07 56.6406H123.246C123.238 57.5312 123 58.3242 122.531 59.0195C122.062 59.707 121.434 60.25 120.645 60.6484C119.855 61.0391 118.973 61.2344 117.996 61.2344C117.012 61.2344 116.152 61.0703 115.418 60.7422C114.691 60.4141 114.086 59.9609 113.602 59.3828C113.117 58.7969 112.754 58.1172 112.512 57.3438C112.27 56.5625 112.148 55.7266 112.148 54.8359V54.4961C112.148 53.5977 112.27 52.7617 112.512 51.9883C112.754 51.207 113.117 50.5273 113.602 49.9492C114.086 49.3633 114.691 48.9062 115.418 48.5781C116.145 48.25 116.996 48.0859 117.973 48.0859C119.012 48.0859 119.922 48.2852 120.703 48.6836C121.492 49.082 122.109 49.6523 122.555 50.3945C123.008 51.1289 123.238 52 123.246 53.0078H120.07C120.062 52.5859 119.973 52.2031 119.801 51.8594C119.637 51.5156 119.395 51.2422 119.074 51.0391C118.762 50.8281 118.375 50.7227 117.914 50.7227C117.422 50.7227 117.02 50.8281 116.707 51.0391C116.395 51.2422 116.152 51.5234 115.98 51.8828C115.809 52.2344 115.688 52.6367 115.617 53.0898C115.555 53.5352 115.523 54.0039 115.523 54.4961V54.8359C115.523 55.3281 115.555 55.8008 115.617 56.2539C115.68 56.707 115.797 57.1094 115.969 57.4609C116.148 57.8125 116.395 58.0898 116.707 58.293C117.02 58.4961 117.426 58.5977 117.926 58.5977ZM132.059 57.4961C132.059 57.2539 131.988 57.0352 131.848 56.8398C131.707 56.6445 131.445 56.4648 131.062 56.3008C130.688 56.1289 130.145 55.9727 129.434 55.832C128.793 55.6914 128.195 55.5156 127.641 55.3047C127.094 55.0859 126.617 54.8242 126.211 54.5195C125.812 54.2148 125.5 53.8555 125.273 53.4414C125.047 53.0195 124.934 52.5391 124.934 52C124.934 51.4688 125.047 50.9688 125.273 50.5C125.508 50.0312 125.84 49.6172 126.27 49.2578C126.707 48.8906 127.238 48.6055 127.863 48.4023C128.496 48.1914 129.207 48.0859 129.996 48.0859C131.098 48.0859 132.043 48.2617 132.832 48.6133C133.629 48.9648 134.238 49.4492 134.66 50.0664C135.09 50.6758 135.305 51.3711 135.305 52.1523H131.93C131.93 51.8242 131.859 51.5312 131.719 51.2734C131.586 51.0078 131.375 50.8008 131.086 50.6523C130.805 50.4961 130.438 50.418 129.984 50.418C129.609 50.418 129.285 50.4844 129.012 50.6172C128.738 50.7422 128.527 50.9141 128.379 51.1328C128.238 51.3438 128.168 51.5781 128.168 51.8359C128.168 52.0312 128.207 52.207 128.285 52.3633C128.371 52.5117 128.508 52.6484 128.695 52.7734C128.883 52.8984 129.125 53.0156 129.422 53.125C129.727 53.2266 130.102 53.3203 130.547 53.4062C131.461 53.5938 132.277 53.8398 132.996 54.1445C133.715 54.4414 134.285 54.8477 134.707 55.3633C135.129 55.8711 135.34 56.5391 135.34 57.3672C135.34 57.9297 135.215 58.4453 134.965 58.9141C134.715 59.3828 134.355 59.793 133.887 60.1445C133.418 60.4883 132.855 60.7578 132.199 60.9531C131.551 61.1406 130.82 61.2344 130.008 61.2344C128.828 61.2344 127.828 61.0234 127.008 60.6016C126.195 60.1797 125.578 59.6445 125.156 58.9961C124.742 58.3398 124.535 57.668 124.535 56.9805H127.734C127.75 57.4414 127.867 57.8125 128.086 58.0938C128.312 58.375 128.598 58.5781 128.941 58.7031C129.293 58.8281 129.672 58.8906 130.078 58.8906C130.516 58.8906 130.879 58.832 131.168 58.7148C131.457 58.5898 131.676 58.4258 131.824 58.2227C131.98 58.0117 132.059 57.7695 132.059 57.4961ZM150.363 57.4961C150.363 57.2539 150.293 57.0352 150.152 56.8398C150.012 56.6445 149.75 56.4648 149.367 56.3008C148.992 56.1289 148.449 55.9727 147.738 55.832C147.098 55.6914 146.5 55.5156 145.945 55.3047C145.398 55.0859 144.922 54.8242 144.516 54.5195C144.117 54.2148 143.805 53.8555 143.578 53.4414C143.352 53.0195 143.238 52.5391 143.238 52C143.238 51.4688 143.352 50.9688 143.578 50.5C143.812 50.0312 144.145 49.6172 144.574 49.2578C145.012 48.8906 145.543 48.6055 146.168 48.4023C146.801 48.1914 147.512 48.0859 148.301 48.0859C149.402 48.0859 150.348 48.2617 151.137 48.6133C151.934 48.9648 152.543 49.4492 152.965 50.0664C153.395 50.6758 153.609 51.3711 153.609 52.1523H150.234C150.234 51.8242 150.164 51.5312 150.023 51.2734C149.891 51.0078 149.68 50.8008 149.391 50.6523C149.109 50.4961 148.742 50.418 148.289 50.418C147.914 50.418 147.59 50.4844 147.316 50.6172C147.043 50.7422 146.832 50.9141 146.684 51.1328C146.543 51.3438 146.473 51.5781 146.473 51.8359C146.473 52.0312 146.512 52.207 146.59 52.3633C146.676 52.5117 146.812 52.6484 147 52.7734C147.188 52.8984 147.43 53.0156 147.727 53.125C148.031 53.2266 148.406 53.3203 148.852 53.4062C149.766 53.5938 150.582 53.8398 151.301 54.1445C152.02 54.4414 152.59 54.8477 153.012 55.3633C153.434 55.8711 153.645 56.5391 153.645 57.3672C153.645 57.9297 153.52 58.4453 153.27 58.9141C153.02 59.3828 152.66 59.793 152.191 60.1445C151.723 60.4883 151.16 60.7578 150.504 60.9531C149.855 61.1406 149.125 61.2344 148.312 61.2344C147.133 61.2344 146.133 61.0234 145.312 60.6016C144.5 60.1797 143.883 59.6445 143.461 58.9961C143.047 58.3398 142.84 57.668 142.84 56.9805H146.039C146.055 57.4414 146.172 57.8125 146.391 58.0938C146.617 58.375 146.902 58.5781 147.246 58.7031C147.598 58.8281 147.977 58.8906 148.383 58.8906C148.82 58.8906 149.184 58.832 149.473 58.7148C149.762 58.5898 149.98 58.4258 150.129 58.2227C150.285 58.0117 150.363 57.7695 150.363 57.4961ZM159.398 48.3203V61H156.012V48.3203H159.398ZM155.801 45.0156C155.801 44.5234 155.973 44.1172 156.316 43.7969C156.66 43.4766 157.121 43.3164 157.699 43.3164C158.27 43.3164 158.727 43.4766 159.07 43.7969C159.422 44.1172 159.598 44.5234 159.598 45.0156C159.598 45.5078 159.422 45.9141 159.07 46.2344C158.727 46.5547 158.27 46.7148 157.699 46.7148C157.121 46.7148 156.66 46.5547 156.316 46.2344C155.973 45.9141 155.801 45.5078 155.801 45.0156ZM165.562 50.9453V61H162.176V48.3203H165.352L165.562 50.9453ZM165.094 54.2148H164.156C164.156 53.332 164.262 52.5195 164.473 51.7773C164.691 51.0273 165.008 50.3789 165.422 49.832C165.844 49.2773 166.363 48.8477 166.98 48.543C167.598 48.2383 168.312 48.0859 169.125 48.0859C169.688 48.0859 170.203 48.1719 170.672 48.3438C171.141 48.5078 171.543 48.7695 171.879 49.1289C172.223 49.4805 172.488 49.9414 172.676 50.5117C172.863 51.0742 172.957 51.75 172.957 52.5391V61H169.582V52.9141C169.582 52.3359 169.504 51.8906 169.348 51.5781C169.191 51.2656 168.969 51.0469 168.68 50.9219C168.398 50.7969 168.059 50.7344 167.66 50.7344C167.223 50.7344 166.84 50.8242 166.512 51.0039C166.191 51.1836 165.926 51.4336 165.715 51.7539C165.504 52.0664 165.348 52.4336 165.246 52.8555C165.145 53.2773 165.094 53.7305 165.094 54.2148ZM172.641 53.8281L171.434 53.9805C171.434 53.1523 171.535 52.3828 171.738 51.6719C171.949 50.9609 172.258 50.3359 172.664 49.7969C173.078 49.2578 173.59 48.8398 174.199 48.543C174.809 48.2383 175.512 48.0859 176.309 48.0859C176.918 48.0859 177.473 48.1758 177.973 48.3555C178.473 48.5273 178.898 48.8047 179.25 49.1875C179.609 49.5625 179.883 50.0547 180.07 50.6641C180.266 51.2734 180.363 52.0195 180.363 52.9023V61H176.977V52.9023C176.977 52.3164 176.898 51.8711 176.742 51.5664C176.594 51.2539 176.375 51.0391 176.086 50.9219C175.805 50.7969 175.469 50.7344 175.078 50.7344C174.672 50.7344 174.316 50.8164 174.012 50.9805C173.707 51.1367 173.453 51.3555 173.25 51.6367C173.047 51.918 172.895 52.2461 172.793 52.6211C172.691 52.9883 172.641 53.3906 172.641 53.8281Z" fill="#888888"/>
<path d="M106.688 119H99.1172L99.1641 112.672H106.688C108.25 112.672 109.57 112.297 110.648 111.547C111.742 110.797 112.57 109.68 113.133 108.195C113.711 106.695 114 104.852 114 102.664V101.188C114 99.5469 113.836 98.1094 113.508 96.875C113.195 95.625 112.727 94.5859 112.102 93.7578C111.477 92.9141 110.695 92.2812 109.758 91.8594C108.836 91.4375 107.773 91.2266 106.57 91.2266H98.9766V84.875H106.57C108.883 84.875 111 85.2734 112.922 86.0703C114.859 86.8516 116.531 87.9766 117.938 89.4453C119.359 90.8984 120.453 92.625 121.219 94.625C122 96.6094 122.391 98.8125 122.391 101.234V102.664C122.391 105.07 122 107.273 121.219 109.273C120.453 111.273 119.367 113 117.961 114.453C116.555 115.906 114.891 117.031 112.969 117.828C111.062 118.609 108.969 119 106.688 119ZM103.828 84.875V119H95.6016V84.875H103.828ZM138.586 119.469C136.523 119.469 134.68 119.148 133.055 118.508C131.43 117.852 130.055 116.953 128.93 115.812C127.82 114.672 126.969 113.359 126.375 111.875C125.797 110.391 125.508 108.82 125.508 107.164V106.273C125.508 104.414 125.766 102.695 126.281 101.117C126.797 99.5234 127.562 98.1328 128.578 96.9453C129.594 95.7578 130.867 94.8359 132.398 94.1797C133.93 93.5078 135.711 93.1719 137.742 93.1719C139.539 93.1719 141.148 93.4609 142.57 94.0391C143.992 94.6172 145.195 95.4453 146.18 96.5234C147.18 97.6016 147.938 98.9062 148.453 100.438C148.984 101.969 149.25 103.688 149.25 105.594V108.805H128.531V103.859H141.539V103.25C141.555 102.406 141.406 101.688 141.094 101.094C140.797 100.5 140.359 100.047 139.781 99.7344C139.203 99.4219 138.5 99.2656 137.672 99.2656C136.812 99.2656 136.102 99.4531 135.539 99.8281C134.992 100.203 134.562 100.719 134.25 101.375C133.953 102.016 133.742 102.758 133.617 103.602C133.492 104.445 133.43 105.336 133.43 106.273V107.164C133.43 108.102 133.555 108.953 133.805 109.719C134.07 110.484 134.445 111.141 134.93 111.688C135.43 112.219 136.023 112.633 136.711 112.93C137.414 113.227 138.211 113.375 139.102 113.375C140.18 113.375 141.242 113.172 142.289 112.766C143.336 112.359 144.234 111.688 144.984 110.75L148.57 115.016C148.055 115.75 147.32 116.461 146.367 117.148C145.43 117.836 144.305 118.398 142.992 118.836C141.68 119.258 140.211 119.469 138.586 119.469ZM160.43 98.5156V128.75H152.531V93.6406H159.891L160.43 98.5156ZM175.992 106.016V106.508C175.992 108.352 175.781 110.062 175.359 111.641C174.938 113.219 174.312 114.594 173.484 115.766C172.656 116.938 171.625 117.852 170.391 118.508C169.172 119.148 167.758 119.469 166.148 119.469C164.633 119.469 163.328 119.133 162.234 118.461C161.141 117.789 160.227 116.859 159.492 115.672C158.758 114.484 158.164 113.125 157.711 111.594C157.258 110.062 156.898 108.445 156.633 106.742V106.109C156.898 104.281 157.258 102.586 157.711 101.023C158.164 99.4453 158.758 98.0703 159.492 96.8984C160.227 95.7266 161.133 94.8125 162.211 94.1562C163.305 93.5 164.609 93.1719 166.125 93.1719C167.734 93.1719 169.148 93.4766 170.367 94.0859C171.602 94.6953 172.633 95.5703 173.461 96.7109C174.305 97.8359 174.938 99.1875 175.359 100.766C175.781 102.344 175.992 104.094 175.992 106.016ZM168.094 106.508V106.016C168.094 105.031 168.023 104.133 167.883 103.32C167.742 102.492 167.516 101.773 167.203 101.164C166.906 100.555 166.508 100.086 166.008 99.7578C165.508 99.4297 164.891 99.2656 164.156 99.2656C163.312 99.2656 162.602 99.3984 162.023 99.6641C161.461 99.9141 161.008 100.305 160.664 100.836C160.336 101.352 160.102 102 159.961 102.781C159.836 103.547 159.781 104.445 159.797 105.477V107.398C159.766 108.586 159.883 109.633 160.148 110.539C160.414 111.43 160.875 112.125 161.531 112.625C162.188 113.125 163.078 113.375 164.203 113.375C164.953 113.375 165.578 113.203 166.078 112.859C166.578 112.5 166.977 112.008 167.273 111.383C167.57 110.742 167.781 110.008 167.906 109.18C168.031 108.352 168.094 107.461 168.094 106.508ZM187.852 83V119H179.93V83H187.852ZM191.742 106.578V106.086C191.742 104.227 192.008 102.516 192.539 100.953C193.07 99.375 193.852 98.0078 194.883 96.8516C195.914 95.6953 197.188 94.7969 198.703 94.1562C200.219 93.5 201.969 93.1719 203.953 93.1719C205.953 93.1719 207.711 93.5 209.227 94.1562C210.758 94.7969 212.039 95.6953 213.07 96.8516C214.102 98.0078 214.883 99.375 215.414 100.953C215.945 102.516 216.211 104.227 216.211 106.086V106.578C216.211 108.422 215.945 110.133 215.414 111.711C214.883 113.273 214.102 114.641 213.07 115.812C212.039 116.969 210.766 117.867 209.25 118.508C207.734 119.148 205.984 119.469 204 119.469C202.016 119.469 200.258 119.148 198.727 118.508C197.195 117.867 195.914 116.969 194.883 115.812C193.852 114.641 193.07 113.273 192.539 111.711C192.008 110.133 191.742 108.422 191.742 106.578ZM199.641 106.086V106.578C199.641 107.531 199.711 108.422 199.852 109.25C199.992 110.078 200.227 110.805 200.555 111.43C200.883 112.039 201.328 112.516 201.891 112.859C202.453 113.203 203.156 113.375 204 113.375C204.828 113.375 205.516 113.203 206.062 112.859C206.625 112.516 207.07 112.039 207.398 111.43C207.727 110.805 207.961 110.078 208.102 109.25C208.242 108.422 208.312 107.531 208.312 106.578V106.086C208.312 105.164 208.242 104.297 208.102 103.484C207.961 102.656 207.727 101.93 207.398 101.305C207.07 100.664 206.625 100.164 206.062 99.8047C205.5 99.4453 204.797 99.2656 203.953 99.2656C203.125 99.2656 202.43 99.4453 201.867 99.8047C201.32 100.164 200.883 100.664 200.555 101.305C200.227 101.93 199.992 102.656 199.852 103.484C199.711 104.297 199.641 105.164 199.641 106.086ZM227.133 116.023L233.695 93.6406H242.18L231.984 122.773C231.766 123.414 231.477 124.102 231.117 124.836C230.758 125.586 230.266 126.297 229.641 126.969C229.016 127.641 228.211 128.188 227.227 128.609C226.258 129.031 225.055 129.242 223.617 129.242C222.852 129.242 222.289 129.203 221.93 129.125C221.586 129.062 221.055 128.945 220.336 128.773V123.125C220.539 123.125 220.711 123.125 220.852 123.125C221.008 123.125 221.18 123.125 221.367 123.125C222.211 123.125 222.883 123.039 223.383 122.867C223.898 122.695 224.289 122.445 224.555 122.117C224.836 121.789 225.055 121.391 225.211 120.922L227.133 116.023ZM225.469 93.6406L230.461 111.383L231.328 119.75H226.031L217.008 93.6406H225.469ZM252.211 99.0078V119H244.312V93.6406H251.719L252.211 99.0078ZM251.25 105.453L249.445 105.5C249.445 103.719 249.656 102.078 250.078 100.578C250.5 99.0781 251.125 97.7734 251.953 96.6641C252.781 95.5547 253.797 94.6953 255 94.0859C256.219 93.4766 257.625 93.1719 259.219 93.1719C260.328 93.1719 261.336 93.3438 262.242 93.6875C263.148 94.0156 263.93 94.5391 264.586 95.2578C265.242 95.9609 265.742 96.8828 266.086 98.0234C266.445 99.1484 266.625 100.5 266.625 102.078V119H258.727V103.086C258.727 102.008 258.602 101.195 258.352 100.648C258.117 100.102 257.773 99.7344 257.32 99.5469C256.867 99.3594 256.312 99.2656 255.656 99.2656C254.969 99.2656 254.352 99.4219 253.805 99.7344C253.258 100.047 252.789 100.484 252.398 101.047C252.023 101.594 251.734 102.242 251.531 102.992C251.344 103.742 251.25 104.562 251.25 105.453ZM265.734 105.453L263.531 105.5C263.531 103.719 263.727 102.078 264.117 100.578C264.523 99.0781 265.125 97.7734 265.922 96.6641C266.734 95.5547 267.742 94.6953 268.945 94.0859C270.148 93.4766 271.547 93.1719 273.141 93.1719C274.297 93.1719 275.359 93.3438 276.328 93.6875C277.297 94.0312 278.133 94.5859 278.836 95.3516C279.539 96.1172 280.086 97.1328 280.477 98.3984C280.867 99.6484 281.062 101.195 281.062 103.039V119H273.141V103.039C273.141 101.992 273.016 101.203 272.766 100.672C272.531 100.125 272.188 99.7578 271.734 99.5703C271.281 99.3672 270.742 99.2656 270.117 99.2656C269.367 99.2656 268.719 99.4219 268.172 99.7344C267.625 100.047 267.164 100.484 266.789 101.047C266.43 101.594 266.164 102.242 265.992 102.992C265.82 103.742 265.734 104.562 265.734 105.453ZM297.867 119.469C295.805 119.469 293.961 119.148 292.336 118.508C290.711 117.852 289.336 116.953 288.211 115.812C287.102 114.672 286.25 113.359 285.656 111.875C285.078 110.391 284.789 108.82 284.789 107.164V106.273C284.789 104.414 285.047 102.695 285.562 101.117C286.078 99.5234 286.844 98.1328 287.859 96.9453C288.875 95.7578 290.148 94.8359 291.68 94.1797C293.211 93.5078 294.992 93.1719 297.023 93.1719C298.82 93.1719 300.43 93.4609 301.852 94.0391C303.273 94.6172 304.477 95.4453 305.461 96.5234C306.461 97.6016 307.219 98.9062 307.734 100.438C308.266 101.969 308.531 103.688 308.531 105.594V108.805H287.812V103.859H300.82V103.25C300.836 102.406 300.688 101.688 300.375 101.094C300.078 100.5 299.641 100.047 299.062 99.7344C298.484 99.4219 297.781 99.2656 296.953 99.2656C296.094 99.2656 295.383 99.4531 294.82 99.8281C294.273 100.203 293.844 100.719 293.531 101.375C293.234 102.016 293.023 102.758 292.898 103.602C292.773 104.445 292.711 105.336 292.711 106.273V107.164C292.711 108.102 292.836 108.953 293.086 109.719C293.352 110.484 293.727 111.141 294.211 111.688C294.711 112.219 295.305 112.633 295.992 112.93C296.695 113.227 297.492 113.375 298.383 113.375C299.461 113.375 300.523 113.172 301.57 112.766C302.617 112.359 303.516 111.688 304.266 110.75L307.852 115.016C307.336 115.75 306.602 116.461 305.648 117.148C304.711 117.836 303.586 118.398 302.273 118.836C300.961 119.258 299.492 119.469 297.867 119.469ZM319.5 99.0547V119H311.602V93.6406H319.008L319.5 99.0547ZM318.562 105.453L316.711 105.5C316.711 103.562 316.945 101.836 317.414 100.32C317.883 98.7891 318.547 97.4922 319.406 96.4297C320.266 95.3672 321.289 94.5625 322.477 94.0156C323.68 93.4531 325.016 93.1719 326.484 93.1719C327.656 93.1719 328.727 93.3438 329.695 93.6875C330.68 94.0312 331.523 94.5859 332.227 95.3516C332.945 96.1172 333.492 97.1328 333.867 98.3984C334.258 99.6484 334.453 101.195 334.453 103.039V119H326.508V103.016C326.508 102 326.367 101.227 326.086 100.695C325.805 100.148 325.398 99.7734 324.867 99.5703C324.336 99.3672 323.688 99.2656 322.922 99.2656C322.109 99.2656 321.422 99.4219 320.859 99.7344C320.297 100.047 319.844 100.484 319.5 101.047C319.172 101.594 318.93 102.242 318.773 102.992C318.633 103.742 318.562 104.562 318.562 105.453ZM352.195 93.6406V99.125H336.914V93.6406H352.195ZM340.125 87.3359H348.023V110.727C348.023 111.398 348.102 111.922 348.258 112.297C348.414 112.656 348.68 112.914 349.055 113.07C349.445 113.211 349.961 113.281 350.602 113.281C351.055 113.281 351.43 113.273 351.727 113.258C352.023 113.227 352.305 113.188 352.57 113.141V118.789C351.898 119.008 351.195 119.172 350.461 119.281C349.727 119.406 348.945 119.469 348.117 119.469C346.43 119.469 344.984 119.203 343.781 118.672C342.594 118.141 341.688 117.305 341.062 116.164C340.438 115.023 340.125 113.539 340.125 111.711V87.3359Z" fill="black"/>
<path d="M1134 0H1348C1356.28 0 1363 6.71573 1363 15V148C1363 156.284 1356.28 163 1348 163H1134V0Z" fill="#79B933"/>
<path d="M1212.5 117.5L1212.5 45.5L1284.5 45.5L1284.5 117.5L1212.5 117.5Z" fill="white" fill-opacity="0.01"/>
<path d="M1221.5 81.5125L1221.5 108.5L1275.5 108.5L1275.5 81.5" stroke="white" stroke-width="7.24" stroke-linecap="round" stroke-linejoin="round"/>
<path d="M1262 68L1248.5 54.5L1235 68" stroke="white" stroke-width="7.24" stroke-linecap="round" stroke-linejoin="round"/>
<path d="M1248.49 93.5L1248.49 54.5" stroke="white" stroke-width="7.24" stroke-linecap="round" stroke-linejoin="round"/>
</svg>
