<svg width="1363" height="163" viewBox="0 0 1363 163" fill="none" xmlns="http://www.w3.org/2000/svg">
<path d="M0 15C0 6.71573 6.71573 0 15 0H37V163H15C6.71573 163 0 156.284 0 148V15Z" fill="#424242"/>
<rect width="1097" height="163" transform="translate(37)" fill="#F0F0F0"/>
<path d="M101.906 53.9219L94.3945 51.2383V48.0859L104.602 52.375V54.6367L101.906 53.9219ZM94.3945 56.1719L101.918 53.4297L104.602 52.7852V55.0352L94.3945 59.3242V56.1719ZM122.789 55.3398H126.293C126.223 56.4883 125.906 57.5078 125.344 58.3984C124.789 59.2891 124.012 59.9844 123.012 60.4844C122.02 60.9844 120.824 61.2344 119.426 61.2344C118.332 61.2344 117.352 61.0469 116.484 60.6719C115.617 60.2891 114.875 59.7422 114.258 59.0312C113.648 58.3203 113.184 57.4609 112.863 56.4531C112.543 55.4453 112.383 54.3164 112.383 53.0664V51.8828C112.383 50.6328 112.547 49.5039 112.875 48.4961C113.211 47.4805 113.688 46.6172 114.305 45.9062C114.93 45.1953 115.676 44.6484 116.543 44.2656C117.41 43.8828 118.379 43.6914 119.449 43.6914C120.871 43.6914 122.07 43.9492 123.047 44.4648C124.031 44.9805 124.793 45.6914 125.332 46.5977C125.879 47.5039 126.207 48.5352 126.316 49.6914H122.801C122.762 49.0039 122.625 48.4219 122.391 47.9453C122.156 47.4609 121.801 47.0977 121.324 46.8555C120.855 46.6055 120.23 46.4805 119.449 46.4805C118.863 46.4805 118.352 46.5898 117.914 46.8086C117.477 47.0273 117.109 47.3594 116.812 47.8047C116.516 48.25 116.293 48.8125 116.145 49.4922C116.004 50.1641 115.934 50.9531 115.934 51.8594V53.0664C115.934 53.9492 116 54.7266 116.133 55.3984C116.266 56.0625 116.469 56.625 116.742 57.0859C117.023 57.5391 117.383 57.8828 117.82 58.1172C118.266 58.3438 118.801 58.457 119.426 58.457C120.16 58.457 120.766 58.3398 121.242 58.1055C121.719 57.8711 122.082 57.5234 122.332 57.0625C122.59 56.6016 122.742 56.0273 122.789 55.3398ZM137.484 56.5352C137.484 56.2305 137.438 55.957 137.344 55.7148C137.258 55.4648 137.094 55.2383 136.852 55.0352C136.609 54.8242 136.27 54.6172 135.832 54.4141C135.395 54.2109 134.828 54 134.133 53.7812C133.359 53.5312 132.625 53.25 131.93 52.9375C131.242 52.625 130.633 52.2617 130.102 51.8477C129.578 51.4258 129.164 50.9375 128.859 50.3828C128.562 49.8281 128.414 49.1836 128.414 48.4492C128.414 47.7383 128.57 47.0938 128.883 46.5156C129.195 45.9297 129.633 45.4297 130.195 45.0156C130.758 44.5938 131.422 44.2695 132.188 44.043C132.961 43.8164 133.809 43.7031 134.73 43.7031C135.988 43.7031 137.086 43.9297 138.023 44.3828C138.961 44.8359 139.688 45.457 140.203 46.2461C140.727 47.0352 140.988 47.9375 140.988 48.9531H137.496C137.496 48.4531 137.391 48.0156 137.18 47.6406C136.977 47.2578 136.664 46.957 136.242 46.7383C135.828 46.5195 135.305 46.4102 134.672 46.4102C134.062 46.4102 133.555 46.5039 133.148 46.6914C132.742 46.8711 132.438 47.1172 132.234 47.4297C132.031 47.7344 131.93 48.0781 131.93 48.4609C131.93 48.75 132 49.0117 132.141 49.2461C132.289 49.4805 132.508 49.6992 132.797 49.9023C133.086 50.1055 133.441 50.2969 133.863 50.4766C134.285 50.6562 134.773 50.832 135.328 51.0039C136.258 51.2852 137.074 51.6016 137.777 51.9531C138.488 52.3047 139.082 52.6992 139.559 53.1367C140.035 53.5742 140.395 54.0703 140.637 54.625C140.879 55.1797 141 55.8086 141 56.5117C141 57.2539 140.855 57.918 140.566 58.5039C140.277 59.0898 139.859 59.5859 139.312 59.9922C138.766 60.3984 138.113 60.707 137.355 60.918C136.598 61.1289 135.75 61.2344 134.812 61.2344C133.969 61.2344 133.137 61.125 132.316 60.9062C131.496 60.6797 130.75 60.3398 130.078 59.8867C129.414 59.4336 128.883 58.8555 128.484 58.1523C128.086 57.4492 127.887 56.6172 127.887 55.6562H131.414C131.414 56.1875 131.496 56.6367 131.66 57.0039C131.824 57.3711 132.055 57.668 132.352 57.8945C132.656 58.1211 133.016 58.2852 133.43 58.3867C133.852 58.4883 134.312 58.5391 134.812 58.5391C135.422 58.5391 135.922 58.4531 136.312 58.2812C136.711 58.1094 137.004 57.8711 137.191 57.5664C137.387 57.2617 137.484 56.918 137.484 56.5352ZM156.012 57.4961C156.012 57.2539 155.941 57.0352 155.801 56.8398C155.66 56.6445 155.398 56.4648 155.016 56.3008C154.641 56.1289 154.098 55.9727 153.387 55.832C152.746 55.6914 152.148 55.5156 151.594 55.3047C151.047 55.0859 150.57 54.8242 150.164 54.5195C149.766 54.2148 149.453 53.8555 149.227 53.4414C149 53.0195 148.887 52.5391 148.887 52C148.887 51.4688 149 50.9688 149.227 50.5C149.461 50.0312 149.793 49.6172 150.223 49.2578C150.66 48.8906 151.191 48.6055 151.816 48.4023C152.449 48.1914 153.16 48.0859 153.949 48.0859C155.051 48.0859 155.996 48.2617 156.785 48.6133C157.582 48.9648 158.191 49.4492 158.613 50.0664C159.043 50.6758 159.258 51.3711 159.258 52.1523H155.883C155.883 51.8242 155.812 51.5312 155.672 51.2734C155.539 51.0078 155.328 50.8008 155.039 50.6523C154.758 50.4961 154.391 50.418 153.938 50.418C153.562 50.418 153.238 50.4844 152.965 50.6172C152.691 50.7422 152.48 50.9141 152.332 51.1328C152.191 51.3438 152.121 51.5781 152.121 51.8359C152.121 52.0312 152.16 52.207 152.238 52.3633C152.324 52.5117 152.461 52.6484 152.648 52.7734C152.836 52.8984 153.078 53.0156 153.375 53.125C153.68 53.2266 154.055 53.3203 154.5 53.4062C155.414 53.5938 156.23 53.8398 156.949 54.1445C157.668 54.4414 158.238 54.8477 158.66 55.3633C159.082 55.8711 159.293 56.5391 159.293 57.3672C159.293 57.9297 159.168 58.4453 158.918 58.9141C158.668 59.3828 158.309 59.793 157.84 60.1445C157.371 60.4883 156.809 60.7578 156.152 60.9531C155.504 61.1406 154.773 61.2344 153.961 61.2344C152.781 61.2344 151.781 61.0234 150.961 60.6016C150.148 60.1797 149.531 59.6445 149.109 58.9961C148.695 58.3398 148.488 57.668 148.488 56.9805H151.688C151.703 57.4414 151.82 57.8125 152.039 58.0938C152.266 58.375 152.551 58.5781 152.895 58.7031C153.246 58.8281 153.625 58.8906 154.031 58.8906C154.469 58.8906 154.832 58.832 155.121 58.7148C155.41 58.5898 155.629 58.4258 155.777 58.2227C155.934 58.0117 156.012 57.7695 156.012 57.4961ZM165.047 48.3203V61H161.66V48.3203H165.047ZM161.449 45.0156C161.449 44.5234 161.621 44.1172 161.965 43.7969C162.309 43.4766 162.77 43.3164 163.348 43.3164C163.918 43.3164 164.375 43.4766 164.719 43.7969C165.07 44.1172 165.246 44.5234 165.246 45.0156C165.246 45.5078 165.07 45.9141 164.719 46.2344C164.375 46.5547 163.918 46.7148 163.348 46.7148C162.77 46.7148 162.309 46.5547 161.965 46.2344C161.621 45.9141 161.449 45.5078 161.449 45.0156ZM171.211 50.9453V61H167.824V48.3203H171L171.211 50.9453ZM170.742 54.2148H169.805C169.805 53.332 169.91 52.5195 170.121 51.7773C170.34 51.0273 170.656 50.3789 171.07 49.832C171.492 49.2773 172.012 48.8477 172.629 48.543C173.246 48.2383 173.961 48.0859 174.773 48.0859C175.336 48.0859 175.852 48.1719 176.32 48.3438C176.789 48.5078 177.191 48.7695 177.527 49.1289C177.871 49.4805 178.137 49.9414 178.324 50.5117C178.512 51.0742 178.605 51.75 178.605 52.5391V61H175.23V52.9141C175.23 52.3359 175.152 51.8906 174.996 51.5781C174.84 51.2656 174.617 51.0469 174.328 50.9219C174.047 50.7969 173.707 50.7344 173.309 50.7344C172.871 50.7344 172.488 50.8242 172.16 51.0039C171.84 51.1836 171.574 51.4336 171.363 51.7539C171.152 52.0664 170.996 52.4336 170.895 52.8555C170.793 53.2773 170.742 53.7305 170.742 54.2148ZM178.289 53.8281L177.082 53.9805C177.082 53.1523 177.184 52.3828 177.387 51.6719C177.598 50.9609 177.906 50.3359 178.312 49.7969C178.727 49.2578 179.238 48.8398 179.848 48.543C180.457 48.2383 181.16 48.0859 181.957 48.0859C182.566 48.0859 183.121 48.1758 183.621 48.3555C184.121 48.5273 184.547 48.8047 184.898 49.1875C185.258 49.5625 185.531 50.0547 185.719 50.6641C185.914 51.2734 186.012 52.0195 186.012 52.9023V61H182.625V52.9023C182.625 52.3164 182.547 51.8711 182.391 51.5664C182.242 51.2539 182.023 51.0391 181.734 50.9219C181.453 50.7969 181.117 50.7344 180.727 50.7344C180.32 50.7344 179.965 50.8164 179.66 50.9805C179.355 51.1367 179.102 51.3555 178.898 51.6367C178.695 51.918 178.543 52.2461 178.441 52.6211C178.34 52.9883 178.289 53.3906 178.289 53.8281Z" fill="#888888"/>
<path d="M114.117 84.875H122.344V107.164C122.344 109.82 121.789 112.07 120.68 113.914C119.57 115.742 118.016 117.125 116.016 118.062C114.016 119 111.664 119.469 108.961 119.469C106.289 119.469 103.938 119 101.906 118.062C99.8906 117.125 98.3125 115.742 97.1719 113.914C96.0469 112.07 95.4844 109.82 95.4844 107.164V84.875H103.734V107.164C103.734 108.57 103.938 109.719 104.344 110.609C104.75 111.484 105.344 112.125 106.125 112.531C106.906 112.938 107.852 113.141 108.961 113.141C110.086 113.141 111.031 112.938 111.797 112.531C112.562 112.125 113.141 111.484 113.531 110.609C113.922 109.719 114.117 108.57 114.117 107.164V84.875ZM136.266 84.875V119H128.062V84.875H136.266ZM172.523 84.875H180.75V107.164C180.75 109.82 180.195 112.07 179.086 113.914C177.977 115.742 176.422 117.125 174.422 118.062C172.422 119 170.07 119.469 167.367 119.469C164.695 119.469 162.344 119 160.312 118.062C158.297 117.125 156.719 115.742 155.578 113.914C154.453 112.07 153.891 109.82 153.891 107.164V84.875H162.141V107.164C162.141 108.57 162.344 109.719 162.75 110.609C163.156 111.484 163.75 112.125 164.531 112.531C165.312 112.938 166.258 113.141 167.367 113.141C168.492 113.141 169.438 112.938 170.203 112.531C170.969 112.125 171.547 111.484 171.938 110.609C172.328 109.719 172.523 108.57 172.523 107.164V84.875ZM193.078 84.875L198.656 96.2188L204.234 84.875H213.609L204.094 101.797L213.867 119H204.398L198.656 107.445L192.914 119H183.422L193.219 101.797L183.68 84.875H193.078Z" fill="black"/>
<path d="M1134 0H1348C1356.28 0 1363 6.71573 1363 15V148C1363 156.284 1356.28 163 1348 163H1134V0Z" fill="#2895EE"/>
<path d="M1248.5 111.917C1244.51 111.917 1240.55 111.13 1236.86 109.601C1233.17 108.073 1229.82 105.832 1226.99 103.008C1221.29 97.3036 1218.08 89.567 1218.08 81.5C1218.08 73.433 1221.29 65.6964 1226.99 59.9922C1232.7 54.2879 1240.43 51.0833 1248.5 51.0833C1265.23 51.0833 1278.92 63.25 1278.92 78.4583C1278.92 83.2985 1276.99 87.9405 1273.57 91.363C1270.15 94.7856 1265.51 96.7083 1260.67 96.7083H1255.19C1254.28 96.7083 1253.67 97.3167 1253.67 98.2292C1253.67 98.5333 1253.97 98.8375 1253.97 99.1417C1255.19 100.662 1255.8 102.487 1255.8 104.312C1256.1 108.571 1252.76 111.917 1248.5 111.917ZM1248.5 57.1667C1242.05 57.1667 1235.86 59.7303 1231.29 64.2937C1226.73 68.8571 1224.17 75.0464 1224.17 81.5C1224.17 87.9536 1226.73 94.1429 1231.29 98.7063C1235.86 103.27 1242.05 105.833 1248.5 105.833C1249.41 105.833 1250.02 105.225 1250.02 104.312C1250.02 103.704 1249.72 103.4 1249.72 103.096C1248.5 101.575 1247.89 100.054 1247.89 98.2292C1247.89 93.9708 1251.24 90.625 1255.5 90.625H1260.67C1263.89 90.625 1266.99 89.3432 1269.27 87.0615C1271.55 84.7798 1272.83 81.6851 1272.83 78.4583C1272.83 66.5958 1261.88 57.1667 1248.5 57.1667ZM1231.77 75.4167C1234.2 75.4167 1236.33 77.5458 1236.33 79.9792C1236.33 82.4125 1234.2 84.5417 1231.77 84.5417C1229.34 84.5417 1227.21 82.4125 1227.21 79.9792C1227.21 77.5458 1229.34 75.4167 1231.77 75.4167ZM1240.9 63.25C1243.33 63.25 1245.46 65.3792 1245.46 67.8125C1245.46 70.2458 1243.33 72.375 1240.9 72.375C1238.46 72.375 1236.33 70.2458 1236.33 67.8125C1236.33 65.3792 1238.46 63.25 1240.9 63.25ZM1256.1 63.25C1258.54 63.25 1260.67 65.3792 1260.67 67.8125C1260.67 70.2458 1258.54 72.375 1256.1 72.375C1253.67 72.375 1251.54 70.2458 1251.54 67.8125C1251.54 65.3792 1253.67 63.25 1256.1 63.25ZM1265.23 75.4167C1267.66 75.4167 1269.79 77.5458 1269.79 79.9792C1269.79 82.4125 1267.66 84.5417 1265.23 84.5417C1262.8 84.5417 1260.67 82.4125 1260.67 79.9792C1260.67 77.5458 1262.8 75.4167 1265.23 75.4167Z" fill="white"/>
</svg>
