<svg width="1363" height="163" viewBox="0 0 1363 163" fill="none" xmlns="http://www.w3.org/2000/svg">
<path d="M0 15C0 6.71573 6.71573 0 15 0H37V163H15C6.71573 163 0 156.284 0 148V15Z" fill="#424242"/>
<rect width="1097" height="163" transform="translate(37)" fill="#F0F0F0"/>
<path d="M101.906 53.9219L94.3945 51.2383V48.0859L104.602 52.375V54.6367L101.906 53.9219ZM94.3945 56.1719L101.918 53.4297L104.602 52.7852V55.0352L94.3945 59.3242V56.1719ZM122.789 55.3398H126.293C126.223 56.4883 125.906 57.5078 125.344 58.3984C124.789 59.2891 124.012 59.9844 123.012 60.4844C122.02 60.9844 120.824 61.2344 119.426 61.2344C118.332 61.2344 117.352 61.0469 116.484 60.6719C115.617 60.2891 114.875 59.7422 114.258 59.0312C113.648 58.3203 113.184 57.4609 112.863 56.4531C112.543 55.4453 112.383 54.3164 112.383 53.0664V51.8828C112.383 50.6328 112.547 49.5039 112.875 48.4961C113.211 47.4805 113.688 46.6172 114.305 45.9062C114.93 45.1953 115.676 44.6484 116.543 44.2656C117.41 43.8828 118.379 43.6914 119.449 43.6914C120.871 43.6914 122.07 43.9492 123.047 44.4648C124.031 44.9805 124.793 45.6914 125.332 46.5977C125.879 47.5039 126.207 48.5352 126.316 49.6914H122.801C122.762 49.0039 122.625 48.4219 122.391 47.9453C122.156 47.4609 121.801 47.0977 121.324 46.8555C120.855 46.6055 120.23 46.4805 119.449 46.4805C118.863 46.4805 118.352 46.5898 117.914 46.8086C117.477 47.0273 117.109 47.3594 116.812 47.8047C116.516 48.25 116.293 48.8125 116.145 49.4922C116.004 50.1641 115.934 50.9531 115.934 51.8594V53.0664C115.934 53.9492 116 54.7266 116.133 55.3984C116.266 56.0625 116.469 56.625 116.742 57.0859C117.023 57.5391 117.383 57.8828 117.82 58.1172C118.266 58.3438 118.801 58.457 119.426 58.457C120.16 58.457 120.766 58.3398 121.242 58.1055C121.719 57.8711 122.082 57.5234 122.332 57.0625C122.59 56.6016 122.742 56.0273 122.789 55.3398ZM137.484 56.5352C137.484 56.2305 137.438 55.957 137.344 55.7148C137.258 55.4648 137.094 55.2383 136.852 55.0352C136.609 54.8242 136.27 54.6172 135.832 54.4141C135.395 54.2109 134.828 54 134.133 53.7812C133.359 53.5312 132.625 53.25 131.93 52.9375C131.242 52.625 130.633 52.2617 130.102 51.8477C129.578 51.4258 129.164 50.9375 128.859 50.3828C128.562 49.8281 128.414 49.1836 128.414 48.4492C128.414 47.7383 128.57 47.0938 128.883 46.5156C129.195 45.9297 129.633 45.4297 130.195 45.0156C130.758 44.5938 131.422 44.2695 132.188 44.043C132.961 43.8164 133.809 43.7031 134.73 43.7031C135.988 43.7031 137.086 43.9297 138.023 44.3828C138.961 44.8359 139.688 45.457 140.203 46.2461C140.727 47.0352 140.988 47.9375 140.988 48.9531H137.496C137.496 48.4531 137.391 48.0156 137.18 47.6406C136.977 47.2578 136.664 46.957 136.242 46.7383C135.828 46.5195 135.305 46.4102 134.672 46.4102C134.062 46.4102 133.555 46.5039 133.148 46.6914C132.742 46.8711 132.438 47.1172 132.234 47.4297C132.031 47.7344 131.93 48.0781 131.93 48.4609C131.93 48.75 132 49.0117 132.141 49.2461C132.289 49.4805 132.508 49.6992 132.797 49.9023C133.086 50.1055 133.441 50.2969 133.863 50.4766C134.285 50.6562 134.773 50.832 135.328 51.0039C136.258 51.2852 137.074 51.6016 137.777 51.9531C138.488 52.3047 139.082 52.6992 139.559 53.1367C140.035 53.5742 140.395 54.0703 140.637 54.625C140.879 55.1797 141 55.8086 141 56.5117C141 57.2539 140.855 57.918 140.566 58.5039C140.277 59.0898 139.859 59.5859 139.312 59.9922C138.766 60.3984 138.113 60.707 137.355 60.918C136.598 61.1289 135.75 61.2344 134.812 61.2344C133.969 61.2344 133.137 61.125 132.316 60.9062C131.496 60.6797 130.75 60.3398 130.078 59.8867C129.414 59.4336 128.883 58.8555 128.484 58.1523C128.086 57.4492 127.887 56.6172 127.887 55.6562H131.414C131.414 56.1875 131.496 56.6367 131.66 57.0039C131.824 57.3711 132.055 57.668 132.352 57.8945C132.656 58.1211 133.016 58.2852 133.43 58.3867C133.852 58.4883 134.312 58.5391 134.812 58.5391C135.422 58.5391 135.922 58.4531 136.312 58.2812C136.711 58.1094 137.004 57.8711 137.191 57.5664C137.387 57.2617 137.484 56.918 137.484 56.5352ZM156.012 57.4961C156.012 57.2539 155.941 57.0352 155.801 56.8398C155.66 56.6445 155.398 56.4648 155.016 56.3008C154.641 56.1289 154.098 55.9727 153.387 55.832C152.746 55.6914 152.148 55.5156 151.594 55.3047C151.047 55.0859 150.57 54.8242 150.164 54.5195C149.766 54.2148 149.453 53.8555 149.227 53.4414C149 53.0195 148.887 52.5391 148.887 52C148.887 51.4688 149 50.9688 149.227 50.5C149.461 50.0312 149.793 49.6172 150.223 49.2578C150.66 48.8906 151.191 48.6055 151.816 48.4023C152.449 48.1914 153.16 48.0859 153.949 48.0859C155.051 48.0859 155.996 48.2617 156.785 48.6133C157.582 48.9648 158.191 49.4492 158.613 50.0664C159.043 50.6758 159.258 51.3711 159.258 52.1523H155.883C155.883 51.8242 155.812 51.5312 155.672 51.2734C155.539 51.0078 155.328 50.8008 155.039 50.6523C154.758 50.4961 154.391 50.418 153.938 50.418C153.562 50.418 153.238 50.4844 152.965 50.6172C152.691 50.7422 152.48 50.9141 152.332 51.1328C152.191 51.3438 152.121 51.5781 152.121 51.8359C152.121 52.0312 152.16 52.207 152.238 52.3633C152.324 52.5117 152.461 52.6484 152.648 52.7734C152.836 52.8984 153.078 53.0156 153.375 53.125C153.68 53.2266 154.055 53.3203 154.5 53.4062C155.414 53.5938 156.23 53.8398 156.949 54.1445C157.668 54.4414 158.238 54.8477 158.66 55.3633C159.082 55.8711 159.293 56.5391 159.293 57.3672C159.293 57.9297 159.168 58.4453 158.918 58.9141C158.668 59.3828 158.309 59.793 157.84 60.1445C157.371 60.4883 156.809 60.7578 156.152 60.9531C155.504 61.1406 154.773 61.2344 153.961 61.2344C152.781 61.2344 151.781 61.0234 150.961 60.6016C150.148 60.1797 149.531 59.6445 149.109 58.9961C148.695 58.3398 148.488 57.668 148.488 56.9805H151.688C151.703 57.4414 151.82 57.8125 152.039 58.0938C152.266 58.375 152.551 58.5781 152.895 58.7031C153.246 58.8281 153.625 58.8906 154.031 58.8906C154.469 58.8906 154.832 58.832 155.121 58.7148C155.41 58.5898 155.629 58.4258 155.777 58.2227C155.934 58.0117 156.012 57.7695 156.012 57.4961ZM165.047 48.3203V61H161.66V48.3203H165.047ZM161.449 45.0156C161.449 44.5234 161.621 44.1172 161.965 43.7969C162.309 43.4766 162.77 43.3164 163.348 43.3164C163.918 43.3164 164.375 43.4766 164.719 43.7969C165.07 44.1172 165.246 44.5234 165.246 45.0156C165.246 45.5078 165.07 45.9141 164.719 46.2344C164.375 46.5547 163.918 46.7148 163.348 46.7148C162.77 46.7148 162.309 46.5547 161.965 46.2344C161.621 45.9141 161.449 45.5078 161.449 45.0156ZM171.211 50.9453V61H167.824V48.3203H171L171.211 50.9453ZM170.742 54.2148H169.805C169.805 53.332 169.91 52.5195 170.121 51.7773C170.34 51.0273 170.656 50.3789 171.07 49.832C171.492 49.2773 172.012 48.8477 172.629 48.543C173.246 48.2383 173.961 48.0859 174.773 48.0859C175.336 48.0859 175.852 48.1719 176.32 48.3438C176.789 48.5078 177.191 48.7695 177.527 49.1289C177.871 49.4805 178.137 49.9414 178.324 50.5117C178.512 51.0742 178.605 51.75 178.605 52.5391V61H175.23V52.9141C175.23 52.3359 175.152 51.8906 174.996 51.5781C174.84 51.2656 174.617 51.0469 174.328 50.9219C174.047 50.7969 173.707 50.7344 173.309 50.7344C172.871 50.7344 172.488 50.8242 172.16 51.0039C171.84 51.1836 171.574 51.4336 171.363 51.7539C171.152 52.0664 170.996 52.4336 170.895 52.8555C170.793 53.2773 170.742 53.7305 170.742 54.2148ZM178.289 53.8281L177.082 53.9805C177.082 53.1523 177.184 52.3828 177.387 51.6719C177.598 50.9609 177.906 50.3359 178.312 49.7969C178.727 49.2578 179.238 48.8398 179.848 48.543C180.457 48.2383 181.16 48.0859 181.957 48.0859C182.566 48.0859 183.121 48.1758 183.621 48.3555C184.121 48.5273 184.547 48.8047 184.898 49.1875C185.258 49.5625 185.531 50.0547 185.719 50.6641C185.914 51.2734 186.012 52.0195 186.012 52.9023V61H182.625V52.9023C182.625 52.3164 182.547 51.8711 182.391 51.5664C182.242 51.2539 182.023 51.0391 181.734 50.9219C181.453 50.7969 181.117 50.7344 180.727 50.7344C180.32 50.7344 179.965 50.8164 179.66 50.9805C179.355 51.1367 179.102 51.3555 178.898 51.6367C178.695 51.918 178.543 52.2461 178.441 52.6211C178.34 52.9883 178.289 53.3906 178.289 53.8281Z" fill="#888888"/>
<path d="M106.688 119H99.1172L99.1641 112.672H106.688C108.25 112.672 109.57 112.297 110.648 111.547C111.742 110.797 112.57 109.68 113.133 108.195C113.711 106.695 114 104.852 114 102.664V101.188C114 99.5469 113.836 98.1094 113.508 96.875C113.195 95.625 112.727 94.5859 112.102 93.7578C111.477 92.9141 110.695 92.2812 109.758 91.8594C108.836 91.4375 107.773 91.2266 106.57 91.2266H98.9766V84.875H106.57C108.883 84.875 111 85.2734 112.922 86.0703C114.859 86.8516 116.531 87.9766 117.938 89.4453C119.359 90.8984 120.453 92.625 121.219 94.625C122 96.6094 122.391 98.8125 122.391 101.234V102.664C122.391 105.07 122 107.273 121.219 109.273C120.453 111.273 119.367 113 117.961 114.453C116.555 115.906 114.891 117.031 112.969 117.828C111.062 118.609 108.969 119 106.688 119ZM103.828 84.875V119H95.6016V84.875H103.828ZM139.477 112.625V102.172C139.477 101.453 139.375 100.836 139.172 100.32C138.969 99.8047 138.648 99.4062 138.211 99.125C137.773 98.8281 137.188 98.6797 136.453 98.6797C135.859 98.6797 135.352 98.7812 134.93 98.9844C134.508 99.1875 134.188 99.4922 133.969 99.8984C133.75 100.305 133.641 100.82 133.641 101.445H125.742C125.742 100.273 126 99.1875 126.516 98.1875C127.047 97.1719 127.797 96.2891 128.766 95.5391C129.75 94.7891 130.922 94.2109 132.281 93.8047C133.656 93.3828 135.188 93.1719 136.875 93.1719C138.891 93.1719 140.688 93.5078 142.266 94.1797C143.859 94.8516 145.117 95.8594 146.039 97.2031C146.961 98.5312 147.422 100.203 147.422 102.219V112.602C147.422 114.258 147.516 115.516 147.703 116.375C147.891 117.219 148.156 117.961 148.5 118.602V119H140.578C140.203 118.219 139.922 117.266 139.734 116.141C139.562 115 139.477 113.828 139.477 112.625ZM140.438 103.508L140.484 107.727H136.992C136.258 107.727 135.633 107.828 135.117 108.031C134.617 108.234 134.211 108.516 133.898 108.875C133.602 109.219 133.383 109.609 133.242 110.047C133.117 110.484 133.055 110.945 133.055 111.43C133.055 111.898 133.164 112.32 133.383 112.695C133.617 113.055 133.93 113.336 134.32 113.539C134.711 113.742 135.148 113.844 135.633 113.844C136.508 113.844 137.25 113.68 137.859 113.352C138.484 113.008 138.961 112.594 139.289 112.109C139.617 111.625 139.781 111.172 139.781 110.75L141.516 113.984C141.203 114.609 140.844 115.242 140.438 115.883C140.047 116.523 139.555 117.117 138.961 117.664C138.383 118.195 137.672 118.633 136.828 118.977C135.984 119.305 134.961 119.469 133.758 119.469C132.195 119.469 130.758 119.148 129.445 118.508C128.148 117.867 127.109 116.977 126.328 115.836C125.547 114.68 125.156 113.352 125.156 111.852C125.156 110.539 125.391 109.367 125.859 108.336C126.344 107.305 127.07 106.43 128.039 105.711C129.008 104.992 130.242 104.445 131.742 104.07C133.242 103.695 135.008 103.508 137.039 103.508H140.438ZM165.164 93.6406V99.125H149.883V93.6406H165.164ZM153.094 87.3359H160.992V110.727C160.992 111.398 161.07 111.922 161.227 112.297C161.383 112.656 161.648 112.914 162.023 113.07C162.414 113.211 162.93 113.281 163.57 113.281C164.023 113.281 164.398 113.273 164.695 113.258C164.992 113.227 165.273 113.188 165.539 113.141V118.789C164.867 119.008 164.164 119.172 163.43 119.281C162.695 119.406 161.914 119.469 161.086 119.469C159.398 119.469 157.953 119.203 156.75 118.672C155.562 118.141 154.656 117.305 154.031 116.164C153.406 115.023 153.094 113.539 153.094 111.711V87.3359ZM181.477 112.625V102.172C181.477 101.453 181.375 100.836 181.172 100.32C180.969 99.8047 180.648 99.4062 180.211 99.125C179.773 98.8281 179.188 98.6797 178.453 98.6797C177.859 98.6797 177.352 98.7812 176.93 98.9844C176.508 99.1875 176.188 99.4922 175.969 99.8984C175.75 100.305 175.641 100.82 175.641 101.445H167.742C167.742 100.273 168 99.1875 168.516 98.1875C169.047 97.1719 169.797 96.2891 170.766 95.5391C171.75 94.7891 172.922 94.2109 174.281 93.8047C175.656 93.3828 177.188 93.1719 178.875 93.1719C180.891 93.1719 182.688 93.5078 184.266 94.1797C185.859 94.8516 187.117 95.8594 188.039 97.2031C188.961 98.5312 189.422 100.203 189.422 102.219V112.602C189.422 114.258 189.516 115.516 189.703 116.375C189.891 117.219 190.156 117.961 190.5 118.602V119H182.578C182.203 118.219 181.922 117.266 181.734 116.141C181.562 115 181.477 113.828 181.477 112.625ZM182.438 103.508L182.484 107.727H178.992C178.258 107.727 177.633 107.828 177.117 108.031C176.617 108.234 176.211 108.516 175.898 108.875C175.602 109.219 175.383 109.609 175.242 110.047C175.117 110.484 175.055 110.945 175.055 111.43C175.055 111.898 175.164 112.32 175.383 112.695C175.617 113.055 175.93 113.336 176.32 113.539C176.711 113.742 177.148 113.844 177.633 113.844C178.508 113.844 179.25 113.68 179.859 113.352C180.484 113.008 180.961 112.594 181.289 112.109C181.617 111.625 181.781 111.172 181.781 110.75L183.516 113.984C183.203 114.609 182.844 115.242 182.438 115.883C182.047 116.523 181.555 117.117 180.961 117.664C180.383 118.195 179.672 118.633 178.828 118.977C177.984 119.305 176.961 119.469 175.758 119.469C174.195 119.469 172.758 119.148 171.445 118.508C170.148 117.867 169.109 116.977 168.328 115.836C167.547 114.68 167.156 113.352 167.156 111.852C167.156 110.539 167.391 109.367 167.859 108.336C168.344 107.305 169.07 106.43 170.039 105.711C171.008 104.992 172.242 104.445 173.742 104.07C175.242 103.695 177.008 103.508 179.039 103.508H182.438ZM193.875 83H201.773V112.766L200.953 119H193.875V83ZM217.336 106.039V106.531C217.336 108.453 217.141 110.203 216.75 111.781C216.359 113.359 215.758 114.727 214.945 115.883C214.133 117.023 213.109 117.906 211.875 118.531C210.641 119.156 209.18 119.469 207.492 119.469C205.961 119.469 204.648 119.141 203.555 118.484C202.461 117.812 201.547 116.891 200.812 115.719C200.078 114.531 199.484 113.164 199.031 111.617C198.578 110.055 198.219 108.383 197.953 106.602V106.016C198.219 104.25 198.578 102.594 199.031 101.047C199.484 99.4844 200.078 98.1172 200.812 96.9453C201.547 95.7578 202.453 94.8359 203.531 94.1797C204.625 93.5078 205.93 93.1719 207.445 93.1719C209.148 93.1719 210.617 93.4922 211.852 94.1328C213.102 94.7734 214.133 95.6719 214.945 96.8281C215.758 97.9844 216.359 99.3438 216.75 100.906C217.141 102.469 217.336 104.18 217.336 106.039ZM209.438 106.531V106.039C209.438 105.117 209.383 104.25 209.273 103.438C209.164 102.625 208.969 101.906 208.688 101.281C208.406 100.656 208.008 100.164 207.492 99.8047C206.977 99.4453 206.305 99.2656 205.477 99.2656C204.633 99.2656 203.922 99.4062 203.344 99.6875C202.781 99.9688 202.328 100.375 201.984 100.906C201.656 101.422 201.422 102.062 201.281 102.828C201.141 103.578 201.078 104.43 201.094 105.383V107.234C201.062 108.531 201.18 109.641 201.445 110.562C201.711 111.484 202.172 112.188 202.828 112.672C203.484 113.156 204.383 113.398 205.523 113.398C206.367 113.398 207.047 113.234 207.562 112.906C208.094 112.578 208.492 112.109 208.758 111.5C209.023 110.891 209.203 110.164 209.297 109.32C209.391 108.477 209.438 107.547 209.438 106.531ZM234.023 112.625V102.172C234.023 101.453 233.922 100.836 233.719 100.32C233.516 99.8047 233.195 99.4062 232.758 99.125C232.32 98.8281 231.734 98.6797 231 98.6797C230.406 98.6797 229.898 98.7812 229.477 98.9844C229.055 99.1875 228.734 99.4922 228.516 99.8984C228.297 100.305 228.188 100.82 228.188 101.445H220.289C220.289 100.273 220.547 99.1875 221.062 98.1875C221.594 97.1719 222.344 96.2891 223.312 95.5391C224.297 94.7891 225.469 94.2109 226.828 93.8047C228.203 93.3828 229.734 93.1719 231.422 93.1719C233.438 93.1719 235.234 93.5078 236.812 94.1797C238.406 94.8516 239.664 95.8594 240.586 97.2031C241.508 98.5312 241.969 100.203 241.969 102.219V112.602C241.969 114.258 242.062 115.516 242.25 116.375C242.438 117.219 242.703 117.961 243.047 118.602V119H235.125C234.75 118.219 234.469 117.266 234.281 116.141C234.109 115 234.023 113.828 234.023 112.625ZM234.984 103.508L235.031 107.727H231.539C230.805 107.727 230.18 107.828 229.664 108.031C229.164 108.234 228.758 108.516 228.445 108.875C228.148 109.219 227.93 109.609 227.789 110.047C227.664 110.484 227.602 110.945 227.602 111.43C227.602 111.898 227.711 112.32 227.93 112.695C228.164 113.055 228.477 113.336 228.867 113.539C229.258 113.742 229.695 113.844 230.18 113.844C231.055 113.844 231.797 113.68 232.406 113.352C233.031 113.008 233.508 112.594 233.836 112.109C234.164 111.625 234.328 111.172 234.328 110.75L236.062 113.984C235.75 114.609 235.391 115.242 234.984 115.883C234.594 116.523 234.102 117.117 233.508 117.664C232.93 118.195 232.219 118.633 231.375 118.977C230.531 119.305 229.508 119.469 228.305 119.469C226.742 119.469 225.305 119.148 223.992 118.508C222.695 117.867 221.656 116.977 220.875 115.836C220.094 114.68 219.703 113.352 219.703 111.852C219.703 110.539 219.938 109.367 220.406 108.336C220.891 107.305 221.617 106.43 222.586 105.711C223.555 104.992 224.789 104.445 226.289 104.07C227.789 103.695 229.555 103.508 231.586 103.508H234.984ZM259.641 111.875C259.641 111.438 259.492 111.062 259.195 110.75C258.914 110.422 258.414 110.125 257.695 109.859C256.977 109.578 255.969 109.297 254.672 109.016C253.438 108.75 252.273 108.398 251.18 107.961C250.102 107.523 249.156 106.992 248.344 106.367C247.531 105.742 246.891 105 246.422 104.141C245.969 103.281 245.742 102.297 245.742 101.188C245.742 100.109 245.969 99.0938 246.422 98.1406C246.891 97.1719 247.57 96.3203 248.461 95.5859C249.367 94.8359 250.469 94.25 251.766 93.8281C253.062 93.3906 254.539 93.1719 256.195 93.1719C258.477 93.1719 260.445 93.5234 262.102 94.2266C263.758 94.9141 265.031 95.8828 265.922 97.1328C266.828 98.3672 267.281 99.7969 267.281 101.422H259.383C259.383 100.781 259.273 100.234 259.055 99.7812C258.852 99.3281 258.516 98.9844 258.047 98.75C257.578 98.5 256.953 98.375 256.172 98.375C255.625 98.375 255.125 98.4766 254.672 98.6797C254.234 98.8828 253.883 99.1641 253.617 99.5234C253.352 99.8828 253.219 100.305 253.219 100.789C253.219 101.133 253.297 101.445 253.453 101.727C253.625 101.992 253.883 102.242 254.227 102.477C254.57 102.695 255.008 102.898 255.539 103.086C256.07 103.258 256.711 103.414 257.461 103.555C259.164 103.867 260.758 104.312 262.242 104.891C263.727 105.469 264.93 106.289 265.852 107.352C266.789 108.414 267.258 109.844 267.258 111.641C267.258 112.766 267 113.805 266.484 114.758C265.969 115.695 265.227 116.523 264.258 117.242C263.289 117.945 262.125 118.492 260.766 118.883C259.406 119.273 257.875 119.469 256.172 119.469C253.75 119.469 251.703 119.039 250.031 118.18C248.359 117.305 247.094 116.211 246.234 114.898C245.391 113.57 244.969 112.227 244.969 110.867H252.328C252.359 111.648 252.547 112.289 252.891 112.789C253.25 113.289 253.727 113.656 254.32 113.891C254.914 114.125 255.602 114.242 256.383 114.242C257.102 114.242 257.695 114.141 258.164 113.938C258.648 113.734 259.016 113.461 259.266 113.117C259.516 112.758 259.641 112.344 259.641 111.875ZM283.242 119.469C281.18 119.469 279.336 119.148 277.711 118.508C276.086 117.852 274.711 116.953 273.586 115.812C272.477 114.672 271.625 113.359 271.031 111.875C270.453 110.391 270.164 108.82 270.164 107.164V106.273C270.164 104.414 270.422 102.695 270.938 101.117C271.453 99.5234 272.219 98.1328 273.234 96.9453C274.25 95.7578 275.523 94.8359 277.055 94.1797C278.586 93.5078 280.367 93.1719 282.398 93.1719C284.195 93.1719 285.805 93.4609 287.227 94.0391C288.648 94.6172 289.852 95.4453 290.836 96.5234C291.836 97.6016 292.594 98.9062 293.109 100.438C293.641 101.969 293.906 103.688 293.906 105.594V108.805H273.188V103.859H286.195V103.25C286.211 102.406 286.062 101.688 285.75 101.094C285.453 100.5 285.016 100.047 284.438 99.7344C283.859 99.4219 283.156 99.2656 282.328 99.2656C281.469 99.2656 280.758 99.4531 280.195 99.8281C279.648 100.203 279.219 100.719 278.906 101.375C278.609 102.016 278.398 102.758 278.273 103.602C278.148 104.445 278.086 105.336 278.086 106.273V107.164C278.086 108.102 278.211 108.953 278.461 109.719C278.727 110.484 279.102 111.141 279.586 111.688C280.086 112.219 280.68 112.633 281.367 112.93C282.07 113.227 282.867 113.375 283.758 113.375C284.836 113.375 285.898 113.172 286.945 112.766C287.992 112.359 288.891 111.688 289.641 110.75L293.227 115.016C292.711 115.75 291.977 116.461 291.023 117.148C290.086 117.836 288.961 118.398 287.648 118.836C286.336 119.258 284.867 119.469 283.242 119.469ZM320.531 119H312.961L313.008 112.672H320.531C322.094 112.672 323.414 112.297 324.492 111.547C325.586 110.797 326.414 109.68 326.977 108.195C327.555 106.695 327.844 104.852 327.844 102.664V101.188C327.844 99.5469 327.68 98.1094 327.352 96.875C327.039 95.625 326.57 94.5859 325.945 93.7578C325.32 92.9141 324.539 92.2812 323.602 91.8594C322.68 91.4375 321.617 91.2266 320.414 91.2266H312.82V84.875H320.414C322.727 84.875 324.844 85.2734 326.766 86.0703C328.703 86.8516 330.375 87.9766 331.781 89.4453C333.203 90.8984 334.297 92.625 335.062 94.625C335.844 96.6094 336.234 98.8125 336.234 101.234V102.664C336.234 105.07 335.844 107.273 335.062 109.273C334.297 111.273 333.211 113 331.805 114.453C330.398 115.906 328.734 117.031 326.812 117.828C324.906 118.609 322.812 119 320.531 119ZM317.672 84.875V119H309.445V84.875H317.672ZM352.43 119.469C350.367 119.469 348.523 119.148 346.898 118.508C345.273 117.852 343.898 116.953 342.773 115.812C341.664 114.672 340.812 113.359 340.219 111.875C339.641 110.391 339.352 108.82 339.352 107.164V106.273C339.352 104.414 339.609 102.695 340.125 101.117C340.641 99.5234 341.406 98.1328 342.422 96.9453C343.438 95.7578 344.711 94.8359 346.242 94.1797C347.773 93.5078 349.555 93.1719 351.586 93.1719C353.383 93.1719 354.992 93.4609 356.414 94.0391C357.836 94.6172 359.039 95.4453 360.023 96.5234C361.023 97.6016 361.781 98.9062 362.297 100.438C362.828 101.969 363.094 103.688 363.094 105.594V108.805H342.375V103.859H355.383V103.25C355.398 102.406 355.25 101.688 354.938 101.094C354.641 100.5 354.203 100.047 353.625 99.7344C353.047 99.4219 352.344 99.2656 351.516 99.2656C350.656 99.2656 349.945 99.4531 349.383 99.8281C348.836 100.203 348.406 100.719 348.094 101.375C347.797 102.016 347.586 102.758 347.461 103.602C347.336 104.445 347.273 105.336 347.273 106.273V107.164C347.273 108.102 347.398 108.953 347.648 109.719C347.914 110.484 348.289 111.141 348.773 111.688C349.273 112.219 349.867 112.633 350.555 112.93C351.258 113.227 352.055 113.375 352.945 113.375C354.023 113.375 355.086 113.172 356.133 112.766C357.18 112.359 358.078 111.688 358.828 110.75L362.414 115.016C361.898 115.75 361.164 116.461 360.211 117.148C359.273 117.836 358.148 118.398 356.836 118.836C355.523 119.258 354.055 119.469 352.43 119.469ZM379.594 111.875C379.594 111.438 379.445 111.062 379.148 110.75C378.867 110.422 378.367 110.125 377.648 109.859C376.93 109.578 375.922 109.297 374.625 109.016C373.391 108.75 372.227 108.398 371.133 107.961C370.055 107.523 369.109 106.992 368.297 106.367C367.484 105.742 366.844 105 366.375 104.141C365.922 103.281 365.695 102.297 365.695 101.188C365.695 100.109 365.922 99.0938 366.375 98.1406C366.844 97.1719 367.523 96.3203 368.414 95.5859C369.32 94.8359 370.422 94.25 371.719 93.8281C373.016 93.3906 374.492 93.1719 376.148 93.1719C378.43 93.1719 380.398 93.5234 382.055 94.2266C383.711 94.9141 384.984 95.8828 385.875 97.1328C386.781 98.3672 387.234 99.7969 387.234 101.422H379.336C379.336 100.781 379.227 100.234 379.008 99.7812C378.805 99.3281 378.469 98.9844 378 98.75C377.531 98.5 376.906 98.375 376.125 98.375C375.578 98.375 375.078 98.4766 374.625 98.6797C374.188 98.8828 373.836 99.1641 373.57 99.5234C373.305 99.8828 373.172 100.305 373.172 100.789C373.172 101.133 373.25 101.445 373.406 101.727C373.578 101.992 373.836 102.242 374.18 102.477C374.523 102.695 374.961 102.898 375.492 103.086C376.023 103.258 376.664 103.414 377.414 103.555C379.117 103.867 380.711 104.312 382.195 104.891C383.68 105.469 384.883 106.289 385.805 107.352C386.742 108.414 387.211 109.844 387.211 111.641C387.211 112.766 386.953 113.805 386.438 114.758C385.922 115.695 385.18 116.523 384.211 117.242C383.242 117.945 382.078 118.492 380.719 118.883C379.359 119.273 377.828 119.469 376.125 119.469C373.703 119.469 371.656 119.039 369.984 118.18C368.312 117.305 367.047 116.211 366.188 114.898C365.344 113.57 364.922 112.227 364.922 110.867H372.281C372.312 111.648 372.5 112.289 372.844 112.789C373.203 113.289 373.68 113.656 374.273 113.891C374.867 114.125 375.555 114.242 376.336 114.242C377.055 114.242 377.648 114.141 378.117 113.938C378.602 113.734 378.969 113.461 379.219 113.117C379.469 112.758 379.594 112.344 379.594 111.875ZM399.258 93.6406V119H391.336V93.6406H399.258ZM390.867 87.1016C390.867 85.9766 391.273 85.0547 392.086 84.3359C392.898 83.6172 393.953 83.2578 395.25 83.2578C396.547 83.2578 397.602 83.6172 398.414 84.3359C399.227 85.0547 399.633 85.9766 399.633 87.1016C399.633 88.2266 399.227 89.1484 398.414 89.8672C397.602 90.5859 396.547 90.9453 395.25 90.9453C393.953 90.9453 392.898 90.5859 392.086 89.8672C391.273 89.1484 390.867 88.2266 390.867 87.1016ZM420.07 93.6406H427.242V118.016C427.242 120.359 426.703 122.344 425.625 123.969C424.547 125.609 423.039 126.852 421.102 127.695C419.18 128.555 416.93 128.984 414.352 128.984C413.211 128.984 412.047 128.836 410.859 128.539C409.672 128.258 408.562 127.836 407.531 127.273C406.5 126.711 405.633 126.016 404.93 125.188L408.234 120.547C408.875 121.266 409.68 121.875 410.648 122.375C411.617 122.891 412.758 123.148 414.07 123.148C415.211 123.148 416.164 122.945 416.93 122.539C417.711 122.133 418.305 121.539 418.711 120.758C419.117 119.992 419.32 119.062 419.32 117.969V99.6406L420.07 93.6406ZM403.219 106.625V106.133C403.219 104.211 403.453 102.461 403.922 100.883C404.406 99.2891 405.094 97.9219 405.984 96.7812C406.891 95.625 407.984 94.7344 409.266 94.1094C410.547 93.4844 411.992 93.1719 413.602 93.1719C415.336 93.1719 416.758 93.5078 417.867 94.1797C418.992 94.8359 419.891 95.7578 420.562 96.9453C421.25 98.1328 421.781 99.5234 422.156 101.117C422.547 102.695 422.875 104.398 423.141 106.227V106.812C422.875 108.531 422.508 110.156 422.039 111.688C421.586 113.203 420.992 114.547 420.258 115.719C419.523 116.891 418.602 117.812 417.492 118.484C416.398 119.141 415.086 119.469 413.555 119.469C411.961 119.469 410.523 119.148 409.242 118.508C407.977 117.867 406.891 116.969 405.984 115.812C405.094 114.656 404.406 113.297 403.922 111.734C403.453 110.172 403.219 108.469 403.219 106.625ZM411.117 106.133V106.625C411.117 107.578 411.203 108.461 411.375 109.273C411.562 110.086 411.844 110.805 412.219 111.43C412.594 112.039 413.055 112.516 413.602 112.859C414.164 113.203 414.82 113.375 415.57 113.375C416.711 113.375 417.633 113.133 418.336 112.648C419.039 112.164 419.547 111.477 419.859 110.586C420.172 109.695 420.305 108.648 420.258 107.445V105.594C420.289 104.562 420.219 103.656 420.047 102.875C419.875 102.078 419.602 101.414 419.227 100.883C418.867 100.352 418.383 99.9531 417.773 99.6875C417.18 99.4062 416.461 99.2656 415.617 99.2656C414.883 99.2656 414.234 99.4375 413.672 99.7812C413.109 100.125 412.641 100.609 412.266 101.234C411.891 101.844 411.602 102.57 411.398 103.414C411.211 104.242 411.117 105.148 411.117 106.133ZM439.547 99.0547V119H431.648V93.6406H439.055L439.547 99.0547ZM438.609 105.453L436.758 105.5C436.758 103.562 436.992 101.836 437.461 100.32C437.93 98.7891 438.594 97.4922 439.453 96.4297C440.312 95.3672 441.336 94.5625 442.523 94.0156C443.727 93.4531 445.062 93.1719 446.531 93.1719C447.703 93.1719 448.773 93.3438 449.742 93.6875C450.727 94.0312 451.57 94.5859 452.273 95.3516C452.992 96.1172 453.539 97.1328 453.914 98.3984C454.305 99.6484 454.5 101.195 454.5 103.039V119H446.555V103.016C446.555 102 446.414 101.227 446.133 100.695C445.852 100.148 445.445 99.7734 444.914 99.5703C444.383 99.3672 443.734 99.2656 442.969 99.2656C442.156 99.2656 441.469 99.4219 440.906 99.7344C440.344 100.047 439.891 100.484 439.547 101.047C439.219 101.594 438.977 102.242 438.82 102.992C438.68 103.742 438.609 104.562 438.609 105.453Z" fill="black"/>
<path d="M1134 0H1348C1356.28 0 1363 6.71573 1363 15V148C1363 156.284 1356.28 163 1348 163H1134V0Z" fill="#2895EE"/>
<path d="M1248.5 51.6667C1257.07 51.6667 1264.74 52.9907 1270.29 55.1784C1273.06 56.2717 1275.33 57.5901 1276.91 59.0895C1278.49 60.591 1279.42 62.3052 1279.42 64.1667C1279.42 66.0281 1278.49 67.7423 1276.91 69.2438C1275.33 70.7432 1273.06 72.0616 1270.29 73.1549C1264.74 75.3426 1257.07 76.6666 1248.5 76.6667C1239.93 76.6667 1232.26 75.3427 1226.71 73.1549C1223.94 72.0616 1221.67 70.7432 1220.09 69.2438C1218.51 67.7423 1217.58 66.0281 1217.58 64.1667C1217.58 62.3052 1218.51 60.591 1220.09 59.0895C1221.67 57.5901 1223.94 56.2717 1226.71 55.1784C1232.26 52.9906 1239.93 51.6667 1248.5 51.6667ZM1248.5 55.3336C1242.07 55.3336 1235.28 56.2867 1230.11 57.9147C1227.52 58.7295 1225.37 59.7039 1223.88 60.7917C1222.37 61.8873 1221.63 63.0283 1221.63 64.1667C1221.63 65.305 1222.37 66.446 1223.88 67.5417C1225.37 68.6294 1227.52 69.6038 1230.11 70.4186C1235.28 72.0466 1242.07 72.9997 1248.5 72.9997C1254.93 72.9996 1261.72 72.0466 1266.89 70.4186C1269.48 69.6037 1271.63 68.6296 1273.12 67.5417C1274.63 66.446 1275.38 65.305 1275.38 64.1667C1275.38 63.0283 1274.63 61.8873 1273.12 60.7917C1271.63 59.7037 1269.48 58.7296 1266.89 57.9147C1261.72 56.2868 1254.93 55.3337 1248.5 55.3336Z" fill="white" stroke="white"/>
<path d="M1277.4 62.3333C1277.91 62.3333 1278.42 62.5126 1278.8 62.848L1278.94 62.9808C1279.24 63.304 1279.42 63.7212 1279.42 64.1664V74.8333C1279.42 76.6948 1278.49 78.409 1276.91 79.9105C1275.33 81.4099 1273.06 82.7283 1270.29 83.8216C1264.74 86.0093 1257.07 87.3333 1248.5 87.3333C1239.93 87.3333 1232.26 86.0094 1226.71 83.8216C1223.94 82.7283 1221.67 81.4099 1220.09 79.9105C1218.51 78.409 1217.58 76.6948 1217.58 74.8333V64.1664C1217.58 63.6574 1217.81 63.1851 1218.2 62.848L1218.35 62.7298C1218.71 62.4708 1219.15 62.3334 1219.6 62.3333C1220.12 62.3333 1220.63 62.5126 1221.01 62.848C1221.39 63.1851 1221.63 63.6574 1221.63 64.1664V74.8333C1221.63 75.9717 1222.37 77.1127 1223.88 78.2083C1225.37 79.2961 1227.52 80.2705 1230.11 81.0853C1235.28 82.7133 1242.07 83.6664 1248.5 83.6664C1254.93 83.6663 1261.72 82.7132 1266.89 81.0853C1269.48 80.2704 1271.63 79.2963 1273.12 78.2083C1274.63 77.1127 1275.38 75.9717 1275.38 74.8333V64.1664C1275.38 63.6575 1275.61 63.1851 1275.99 62.848L1276.14 62.7298C1276.5 62.4708 1276.94 62.3333 1277.4 62.3333Z" fill="white" stroke="white"/>
<path d="M1277.4 73C1277.91 73 1278.42 73.1793 1278.8 73.5146L1278.94 73.6475C1279.24 73.9707 1279.42 74.3878 1279.42 74.833V86.833C1279.42 88.6945 1278.49 90.4086 1276.91 91.9102C1275.33 93.4096 1273.06 94.7289 1270.29 95.8223C1264.74 98.0099 1257.07 99.333 1248.5 99.333C1239.93 99.333 1232.26 98.01 1226.71 95.8223C1223.94 94.7289 1221.67 93.4096 1220.09 91.9102C1218.51 90.4087 1217.58 88.6944 1217.58 86.833V74.833L1217.59 74.6445C1217.64 74.2084 1217.86 73.8097 1218.2 73.5146L1218.35 73.3965C1218.71 73.1375 1219.15 73.0001 1219.6 73C1220.12 73 1220.63 73.1793 1221.01 73.5146L1221.15 73.6475C1221.45 73.9707 1221.63 74.3877 1221.63 74.833V86.833C1221.63 87.9713 1222.37 89.1123 1223.88 90.208C1225.37 91.2959 1227.52 92.2711 1230.11 93.0859C1235.28 94.7139 1242.07 95.667 1248.5 95.667C1254.93 95.667 1261.72 94.7139 1266.89 93.0859C1269.48 92.2711 1271.63 91.296 1273.12 90.208C1274.63 89.1124 1275.38 87.9713 1275.38 86.833V74.833C1275.38 74.3242 1275.61 73.8518 1275.99 73.5146L1276.14 73.3965C1276.5 73.1375 1276.94 73 1277.4 73Z" fill="white" stroke="white"/>
<path d="M1277.4 85C1277.91 85 1278.42 85.1793 1278.8 85.5146L1278.94 85.6475C1279.24 85.9707 1279.42 86.3878 1279.42 86.833V98.833C1279.42 100.694 1278.49 102.409 1276.91 103.91C1275.33 105.41 1273.06 106.729 1270.29 107.822C1264.74 110.01 1257.07 111.333 1248.5 111.333C1239.93 111.333 1232.26 110.01 1226.71 107.822C1223.94 106.729 1221.67 105.41 1220.09 103.91C1218.51 102.409 1217.58 100.694 1217.58 98.833V86.833L1217.59 86.6445C1217.64 86.2084 1217.86 85.8097 1218.2 85.5146L1218.35 85.3965C1218.71 85.1375 1219.15 85.0001 1219.6 85C1220.12 85 1220.63 85.1793 1221.01 85.5146L1221.15 85.6475C1221.45 85.9707 1221.63 86.3877 1221.63 86.833V98.833C1221.63 99.9713 1222.37 101.112 1223.88 102.208C1225.37 103.296 1227.52 104.271 1230.11 105.086C1235.28 106.714 1242.07 107.667 1248.5 107.667C1254.93 107.667 1261.72 106.714 1266.89 105.086C1269.48 104.271 1271.63 103.296 1273.12 102.208C1274.63 101.112 1275.38 99.9713 1275.38 98.833V86.833C1275.38 86.3242 1275.61 85.8518 1275.99 85.5146L1276.14 85.3965C1276.5 85.1375 1276.94 85 1277.4 85Z" fill="white" stroke="white"/>
</svg>
