<svg width="1363" height="163" viewBox="0 0 1363 163" fill="none" xmlns="http://www.w3.org/2000/svg">
<path d="M0 15C0 6.71573 6.71573 0 15 0H37V163H15C6.71573 163 0 156.284 0 148V15Z" fill="#424242"/>
<rect width="1097" height="163" transform="translate(37)" fill="#F0F0F0"/>
<path d="M101.906 53.9219L94.3945 51.2383V48.0859L104.602 52.375V54.6367L101.906 53.9219ZM94.3945 56.1719L101.918 53.4297L104.602 52.7852V55.0352L94.3945 59.3242V56.1719ZM117.926 58.5977C118.34 58.5977 118.707 58.5195 119.027 58.3633C119.348 58.1992 119.598 57.9727 119.777 57.6836C119.965 57.3867 120.062 57.0391 120.07 56.6406H123.246C123.238 57.5312 123 58.3242 122.531 59.0195C122.062 59.707 121.434 60.25 120.645 60.6484C119.855 61.0391 118.973 61.2344 117.996 61.2344C117.012 61.2344 116.152 61.0703 115.418 60.7422C114.691 60.4141 114.086 59.9609 113.602 59.3828C113.117 58.7969 112.754 58.1172 112.512 57.3438C112.27 56.5625 112.148 55.7266 112.148 54.8359V54.4961C112.148 53.5977 112.27 52.7617 112.512 51.9883C112.754 51.207 113.117 50.5273 113.602 49.9492C114.086 49.3633 114.691 48.9062 115.418 48.5781C116.145 48.25 116.996 48.0859 117.973 48.0859C119.012 48.0859 119.922 48.2852 120.703 48.6836C121.492 49.082 122.109 49.6523 122.555 50.3945C123.008 51.1289 123.238 52 123.246 53.0078H120.07C120.062 52.5859 119.973 52.2031 119.801 51.8594C119.637 51.5156 119.395 51.2422 119.074 51.0391C118.762 50.8281 118.375 50.7227 117.914 50.7227C117.422 50.7227 117.02 50.8281 116.707 51.0391C116.395 51.2422 116.152 51.5234 115.98 51.8828C115.809 52.2344 115.688 52.6367 115.617 53.0898C115.555 53.5352 115.523 54.0039 115.523 54.4961V54.8359C115.523 55.3281 115.555 55.8008 115.617 56.2539C115.68 56.707 115.797 57.1094 115.969 57.4609C116.148 57.8125 116.395 58.0898 116.707 58.293C117.02 58.4961 117.426 58.5977 117.926 58.5977ZM132.059 57.4961C132.059 57.2539 131.988 57.0352 131.848 56.8398C131.707 56.6445 131.445 56.4648 131.062 56.3008C130.688 56.1289 130.145 55.9727 129.434 55.832C128.793 55.6914 128.195 55.5156 127.641 55.3047C127.094 55.0859 126.617 54.8242 126.211 54.5195C125.812 54.2148 125.5 53.8555 125.273 53.4414C125.047 53.0195 124.934 52.5391 124.934 52C124.934 51.4688 125.047 50.9688 125.273 50.5C125.508 50.0312 125.84 49.6172 126.27 49.2578C126.707 48.8906 127.238 48.6055 127.863 48.4023C128.496 48.1914 129.207 48.0859 129.996 48.0859C131.098 48.0859 132.043 48.2617 132.832 48.6133C133.629 48.9648 134.238 49.4492 134.66 50.0664C135.09 50.6758 135.305 51.3711 135.305 52.1523H131.93C131.93 51.8242 131.859 51.5312 131.719 51.2734C131.586 51.0078 131.375 50.8008 131.086 50.6523C130.805 50.4961 130.438 50.418 129.984 50.418C129.609 50.418 129.285 50.4844 129.012 50.6172C128.738 50.7422 128.527 50.9141 128.379 51.1328C128.238 51.3438 128.168 51.5781 128.168 51.8359C128.168 52.0312 128.207 52.207 128.285 52.3633C128.371 52.5117 128.508 52.6484 128.695 52.7734C128.883 52.8984 129.125 53.0156 129.422 53.125C129.727 53.2266 130.102 53.3203 130.547 53.4062C131.461 53.5938 132.277 53.8398 132.996 54.1445C133.715 54.4414 134.285 54.8477 134.707 55.3633C135.129 55.8711 135.34 56.5391 135.34 57.3672C135.34 57.9297 135.215 58.4453 134.965 58.9141C134.715 59.3828 134.355 59.793 133.887 60.1445C133.418 60.4883 132.855 60.7578 132.199 60.9531C131.551 61.1406 130.82 61.2344 130.008 61.2344C128.828 61.2344 127.828 61.0234 127.008 60.6016C126.195 60.1797 125.578 59.6445 125.156 58.9961C124.742 58.3398 124.535 57.668 124.535 56.9805H127.734C127.75 57.4414 127.867 57.8125 128.086 58.0938C128.312 58.375 128.598 58.5781 128.941 58.7031C129.293 58.8281 129.672 58.8906 130.078 58.8906C130.516 58.8906 130.879 58.832 131.168 58.7148C131.457 58.5898 131.676 58.4258 131.824 58.2227C131.98 58.0117 132.059 57.7695 132.059 57.4961ZM150.363 57.4961C150.363 57.2539 150.293 57.0352 150.152 56.8398C150.012 56.6445 149.75 56.4648 149.367 56.3008C148.992 56.1289 148.449 55.9727 147.738 55.832C147.098 55.6914 146.5 55.5156 145.945 55.3047C145.398 55.0859 144.922 54.8242 144.516 54.5195C144.117 54.2148 143.805 53.8555 143.578 53.4414C143.352 53.0195 143.238 52.5391 143.238 52C143.238 51.4688 143.352 50.9688 143.578 50.5C143.812 50.0312 144.145 49.6172 144.574 49.2578C145.012 48.8906 145.543 48.6055 146.168 48.4023C146.801 48.1914 147.512 48.0859 148.301 48.0859C149.402 48.0859 150.348 48.2617 151.137 48.6133C151.934 48.9648 152.543 49.4492 152.965 50.0664C153.395 50.6758 153.609 51.3711 153.609 52.1523H150.234C150.234 51.8242 150.164 51.5312 150.023 51.2734C149.891 51.0078 149.68 50.8008 149.391 50.6523C149.109 50.4961 148.742 50.418 148.289 50.418C147.914 50.418 147.59 50.4844 147.316 50.6172C147.043 50.7422 146.832 50.9141 146.684 51.1328C146.543 51.3438 146.473 51.5781 146.473 51.8359C146.473 52.0312 146.512 52.207 146.59 52.3633C146.676 52.5117 146.812 52.6484 147 52.7734C147.188 52.8984 147.43 53.0156 147.727 53.125C148.031 53.2266 148.406 53.3203 148.852 53.4062C149.766 53.5938 150.582 53.8398 151.301 54.1445C152.02 54.4414 152.59 54.8477 153.012 55.3633C153.434 55.8711 153.645 56.5391 153.645 57.3672C153.645 57.9297 153.52 58.4453 153.27 58.9141C153.02 59.3828 152.66 59.793 152.191 60.1445C151.723 60.4883 151.16 60.7578 150.504 60.9531C149.855 61.1406 149.125 61.2344 148.312 61.2344C147.133 61.2344 146.133 61.0234 145.312 60.6016C144.5 60.1797 143.883 59.6445 143.461 58.9961C143.047 58.3398 142.84 57.668 142.84 56.9805H146.039C146.055 57.4414 146.172 57.8125 146.391 58.0938C146.617 58.375 146.902 58.5781 147.246 58.7031C147.598 58.8281 147.977 58.8906 148.383 58.8906C148.82 58.8906 149.184 58.832 149.473 58.7148C149.762 58.5898 149.98 58.4258 150.129 58.2227C150.285 58.0117 150.363 57.7695 150.363 57.4961ZM159.398 48.3203V61H156.012V48.3203H159.398ZM155.801 45.0156C155.801 44.5234 155.973 44.1172 156.316 43.7969C156.66 43.4766 157.121 43.3164 157.699 43.3164C158.27 43.3164 158.727 43.4766 159.07 43.7969C159.422 44.1172 159.598 44.5234 159.598 45.0156C159.598 45.5078 159.422 45.9141 159.07 46.2344C158.727 46.5547 158.27 46.7148 157.699 46.7148C157.121 46.7148 156.66 46.5547 156.316 46.2344C155.973 45.9141 155.801 45.5078 155.801 45.0156ZM165.562 50.9453V61H162.176V48.3203H165.352L165.562 50.9453ZM165.094 54.2148H164.156C164.156 53.332 164.262 52.5195 164.473 51.7773C164.691 51.0273 165.008 50.3789 165.422 49.832C165.844 49.2773 166.363 48.8477 166.98 48.543C167.598 48.2383 168.312 48.0859 169.125 48.0859C169.688 48.0859 170.203 48.1719 170.672 48.3438C171.141 48.5078 171.543 48.7695 171.879 49.1289C172.223 49.4805 172.488 49.9414 172.676 50.5117C172.863 51.0742 172.957 51.75 172.957 52.5391V61H169.582V52.9141C169.582 52.3359 169.504 51.8906 169.348 51.5781C169.191 51.2656 168.969 51.0469 168.68 50.9219C168.398 50.7969 168.059 50.7344 167.66 50.7344C167.223 50.7344 166.84 50.8242 166.512 51.0039C166.191 51.1836 165.926 51.4336 165.715 51.7539C165.504 52.0664 165.348 52.4336 165.246 52.8555C165.145 53.2773 165.094 53.7305 165.094 54.2148ZM172.641 53.8281L171.434 53.9805C171.434 53.1523 171.535 52.3828 171.738 51.6719C171.949 50.9609 172.258 50.3359 172.664 49.7969C173.078 49.2578 173.59 48.8398 174.199 48.543C174.809 48.2383 175.512 48.0859 176.309 48.0859C176.918 48.0859 177.473 48.1758 177.973 48.3555C178.473 48.5273 178.898 48.8047 179.25 49.1875C179.609 49.5625 179.883 50.0547 180.07 50.6641C180.266 51.2734 180.363 52.0195 180.363 52.9023V61H176.977V52.9023C176.977 52.3164 176.898 51.8711 176.742 51.5664C176.594 51.2539 176.375 51.0391 176.086 50.9219C175.805 50.7969 175.469 50.7344 175.078 50.7344C174.672 50.7344 174.316 50.8164 174.012 50.9805C173.707 51.1367 173.453 51.3555 173.25 51.6367C173.047 51.918 172.895 52.2461 172.793 52.6211C172.691 52.9883 172.641 53.3906 172.641 53.8281Z" fill="#888888"/>
<path d="M106.688 119H99.1172L99.1641 112.672H106.688C108.25 112.672 109.57 112.297 110.648 111.547C111.742 110.797 112.57 109.68 113.133 108.195C113.711 106.695 114 104.852 114 102.664V101.188C114 99.5469 113.836 98.1094 113.508 96.875C113.195 95.625 112.727 94.5859 112.102 93.7578C111.477 92.9141 110.695 92.2812 109.758 91.8594C108.836 91.4375 107.773 91.2266 106.57 91.2266H98.9766V84.875H106.57C108.883 84.875 111 85.2734 112.922 86.0703C114.859 86.8516 116.531 87.9766 117.938 89.4453C119.359 90.8984 120.453 92.625 121.219 94.625C122 96.6094 122.391 98.8125 122.391 101.234V102.664C122.391 105.07 122 107.273 121.219 109.273C120.453 111.273 119.367 113 117.961 114.453C116.555 115.906 114.891 117.031 112.969 117.828C111.062 118.609 108.969 119 106.688 119ZM103.828 84.875V119H95.6016V84.875H103.828ZM138.586 119.469C136.523 119.469 134.68 119.148 133.055 118.508C131.43 117.852 130.055 116.953 128.93 115.812C127.82 114.672 126.969 113.359 126.375 111.875C125.797 110.391 125.508 108.82 125.508 107.164V106.273C125.508 104.414 125.766 102.695 126.281 101.117C126.797 99.5234 127.562 98.1328 128.578 96.9453C129.594 95.7578 130.867 94.8359 132.398 94.1797C133.93 93.5078 135.711 93.1719 137.742 93.1719C139.539 93.1719 141.148 93.4609 142.57 94.0391C143.992 94.6172 145.195 95.4453 146.18 96.5234C147.18 97.6016 147.938 98.9062 148.453 100.438C148.984 101.969 149.25 103.688 149.25 105.594V108.805H128.531V103.859H141.539V103.25C141.555 102.406 141.406 101.688 141.094 101.094C140.797 100.5 140.359 100.047 139.781 99.7344C139.203 99.4219 138.5 99.2656 137.672 99.2656C136.812 99.2656 136.102 99.4531 135.539 99.8281C134.992 100.203 134.562 100.719 134.25 101.375C133.953 102.016 133.742 102.758 133.617 103.602C133.492 104.445 133.43 105.336 133.43 106.273V107.164C133.43 108.102 133.555 108.953 133.805 109.719C134.07 110.484 134.445 111.141 134.93 111.688C135.43 112.219 136.023 112.633 136.711 112.93C137.414 113.227 138.211 113.375 139.102 113.375C140.18 113.375 141.242 113.172 142.289 112.766C143.336 112.359 144.234 111.688 144.984 110.75L148.57 115.016C148.055 115.75 147.32 116.461 146.367 117.148C145.43 117.836 144.305 118.398 142.992 118.836C141.68 119.258 140.211 119.469 138.586 119.469ZM160.43 99.0078V119H152.531V93.6406H159.938L160.43 99.0078ZM159.469 105.453L157.664 105.5C157.664 103.719 157.875 102.078 158.297 100.578C158.719 99.0781 159.344 97.7734 160.172 96.6641C161 95.5547 162.016 94.6953 163.219 94.0859C164.438 93.4766 165.844 93.1719 167.438 93.1719C168.547 93.1719 169.555 93.3438 170.461 93.6875C171.367 94.0156 172.148 94.5391 172.805 95.2578C173.461 95.9609 173.961 96.8828 174.305 98.0234C174.664 99.1484 174.844 100.5 174.844 102.078V119H166.945V103.086C166.945 102.008 166.82 101.195 166.57 100.648C166.336 100.102 165.992 99.7344 165.539 99.5469C165.086 99.3594 164.531 99.2656 163.875 99.2656C163.188 99.2656 162.57 99.4219 162.023 99.7344C161.477 100.047 161.008 100.484 160.617 101.047C160.242 101.594 159.953 102.242 159.75 102.992C159.562 103.742 159.469 104.562 159.469 105.453ZM173.953 105.453L171.75 105.5C171.75 103.719 171.945 102.078 172.336 100.578C172.742 99.0781 173.344 97.7734 174.141 96.6641C174.953 95.5547 175.961 94.6953 177.164 94.0859C178.367 93.4766 179.766 93.1719 181.359 93.1719C182.516 93.1719 183.578 93.3438 184.547 93.6875C185.516 94.0312 186.352 94.5859 187.055 95.3516C187.758 96.1172 188.305 97.1328 188.695 98.3984C189.086 99.6484 189.281 101.195 189.281 103.039V119H181.359V103.039C181.359 101.992 181.234 101.203 180.984 100.672C180.75 100.125 180.406 99.7578 179.953 99.5703C179.5 99.3672 178.961 99.2656 178.336 99.2656C177.586 99.2656 176.938 99.4219 176.391 99.7344C175.844 100.047 175.383 100.484 175.008 101.047C174.648 101.594 174.383 102.242 174.211 102.992C174.039 103.742 173.953 104.562 173.953 105.453ZM192.82 106.578V106.086C192.82 104.227 193.086 102.516 193.617 100.953C194.148 99.375 194.93 98.0078 195.961 96.8516C196.992 95.6953 198.266 94.7969 199.781 94.1562C201.297 93.5 203.047 93.1719 205.031 93.1719C207.031 93.1719 208.789 93.5 210.305 94.1562C211.836 94.7969 213.117 95.6953 214.148 96.8516C215.18 98.0078 215.961 99.375 216.492 100.953C217.023 102.516 217.289 104.227 217.289 106.086V106.578C217.289 108.422 217.023 110.133 216.492 111.711C215.961 113.273 215.18 114.641 214.148 115.812C213.117 116.969 211.844 117.867 210.328 118.508C208.812 119.148 207.062 119.469 205.078 119.469C203.094 119.469 201.336 119.148 199.805 118.508C198.273 117.867 196.992 116.969 195.961 115.812C194.93 114.641 194.148 113.273 193.617 111.711C193.086 110.133 192.82 108.422 192.82 106.578ZM200.719 106.086V106.578C200.719 107.531 200.789 108.422 200.93 109.25C201.07 110.078 201.305 110.805 201.633 111.43C201.961 112.039 202.406 112.516 202.969 112.859C203.531 113.203 204.234 113.375 205.078 113.375C205.906 113.375 206.594 113.203 207.141 112.859C207.703 112.516 208.148 112.039 208.477 111.43C208.805 110.805 209.039 110.078 209.18 109.25C209.32 108.422 209.391 107.531 209.391 106.578V106.086C209.391 105.164 209.32 104.297 209.18 103.484C209.039 102.656 208.805 101.93 208.477 101.305C208.148 100.664 207.703 100.164 207.141 99.8047C206.578 99.4453 205.875 99.2656 205.031 99.2656C204.203 99.2656 203.508 99.4453 202.945 99.8047C202.398 100.164 201.961 100.664 201.633 101.305C201.305 101.93 201.07 102.656 200.93 103.484C200.789 104.297 200.719 105.164 200.719 106.086Z" fill="black"/>
<path d="M1134 0H1348C1356.28 0 1363 6.71573 1363 15V148C1363 156.284 1356.28 163 1348 163H1134V0Z" fill="#79B933"/>
<path d="M1280.07 47.5H1216.93L1214.5 49.9286V113.071L1216.93 115.5H1280.07L1282.5 113.071V49.9286L1280.07 47.5ZM1277.64 110.643H1233.93V100.929H1245.1C1246.56 103.843 1249.96 105.786 1253.36 105.786C1258.7 105.786 1263.07 101.414 1263.07 96.0714C1263.07 90.7286 1258.7 86.3571 1253.36 86.3571C1248.01 86.3571 1243.64 90.7286 1243.64 96.0714H1229.07V110.643H1219.36V52.3571H1229.07V63.5286C1226.16 64.9857 1224.21 68.3857 1224.21 71.7857C1224.21 77.1286 1228.59 81.5 1233.93 81.5C1239.27 81.5 1243.64 77.1286 1243.64 71.7857H1253.36C1253.36 77.1286 1257.73 81.5 1263.07 81.5C1268.41 81.5 1272.79 77.1286 1272.79 71.7857C1272.79 66.4429 1268.41 62.0714 1263.07 62.0714C1259.67 62.0714 1256.27 64.0143 1254.81 66.9286H1242.19C1240.73 64.0143 1237.33 62.0714 1233.93 62.0714V52.3571H1277.64V110.643ZM1248.5 96.0714C1248.5 93.1571 1250.44 91.2143 1253.36 91.2143C1256.27 91.2143 1258.21 93.1571 1258.21 96.0714C1258.21 98.9857 1256.27 100.929 1253.36 100.929C1250.44 100.929 1248.5 98.9857 1248.5 96.0714ZM1233.93 66.9286C1236.84 66.9286 1238.79 68.8714 1238.79 71.7857C1238.79 74.7 1236.84 76.6429 1233.93 76.6429C1231.01 76.6429 1229.07 74.7 1229.07 71.7857C1229.07 68.8714 1231.01 66.9286 1233.93 66.9286ZM1263.07 66.9286C1265.99 66.9286 1267.93 68.8714 1267.93 71.7857C1267.93 74.7 1265.99 76.6429 1263.07 76.6429C1260.16 76.6429 1258.21 74.7 1258.21 71.7857C1258.21 68.8714 1260.16 66.9286 1263.07 66.9286Z" fill="white"/>
</svg>
